<svg width="70" height="70" viewBox="0 0 70 70" fill="none" xmlns="http://www.w3.org/2000/svg">
<path d="M59 41C59 47.3652 56.4714 53.4697 51.9706 57.9706C47.4697 62.4714 41.3652 65 35 65C28.6348 65 22.5303 62.4714 18.0294 57.9706C13.5286 53.4697 11 47.3652 11 41C11.0024 36.3233 12.3718 31.7493 14.9397 27.8406C17.5076 23.9319 21.162 20.859 25.4533 19L26.392 19.7307L30.52 22.936C26.4792 23.9331 22.8878 26.2527 20.3172 29.5259C17.7465 32.7992 16.3442 36.838 16.3333 41C16.3333 51.2933 24.7067 59.6667 35 59.6667C45.2933 59.6667 53.6667 51.2933 53.6667 41C53.6558 36.838 52.2535 32.7992 49.6828 29.5259C47.1122 26.2527 43.5208 23.9331 39.48 22.936L44.5467 19C48.838 20.859 52.4924 23.9319 55.0603 27.8406C57.6282 31.7493 58.9976 36.3233 59 41V41ZM35 19.6667L48.3333 9.29333L43 1H27L21.6667 9.29333L29.6667 15.5173L35 19.6667Z" fill="#333333"/>
</svg>
