<svg width="70" height="70" viewBox="0 0 70 70" fill="none" xmlns="http://www.w3.org/2000/svg">
<path d="M64.0127 27.0561C62.412 23.8532 60.6176 21.9804 58.5284 21.3296C55.6686 20.4366 52.9613 21.9235 50.0945 23.4986C47.8232 24.7474 45.4723 25.985 42.9245 26.1761C40.4223 23.1438 37.9167 15.3133 37.9167 10.2083C37.9168 10.0168 37.8792 9.82711 37.8059 9.65013C37.7327 9.47315 37.6252 9.31234 37.4898 9.1769C37.3544 9.04146 37.1936 8.93404 37.0166 8.86079C36.8396 8.78754 36.6499 8.74989 36.4584 8.75C34.6026 8.78888 32.7823 9.26537 31.1455 10.1407C29.5087 11.016 28.1017 12.2655 27.039 13.7873C25.9804 15.3172 25.3749 17.1148 25.2921 18.9734C23.2639 17.103 21.564 14.9057 20.2629 12.4728C20.0889 12.1278 19.7856 11.8655 19.419 11.7433C19.0524 11.6211 18.6523 11.6488 18.3061 11.8205C14.6332 13.658 11.4318 19.8257 10.8592 26.1688C10.2686 32.7241 12.3613 38.4208 16.7809 42.3885C14.4184 44.6329 12.1666 46.0144 7.94402 43.9038C7.69992 43.7815 7.4264 43.7302 7.15459 43.7558C6.88279 43.7814 6.62363 43.8828 6.40663 44.0485C6.18964 44.2141 6.02352 44.4374 5.92721 44.6929C5.8309 44.9483 5.80827 45.2257 5.86188 45.4934L8.77855 60.0767C8.84436 60.4075 9.02283 60.7052 9.28355 60.9192C9.54427 61.1331 9.87111 61.25 10.2084 61.25C16.2739 61.25 22.1271 55.7471 25.2745 52.6197C43.5719 55.9949 48.7929 46.6297 53.0055 39.0873C55.6886 34.2854 58.0057 30.1365 62.9945 29.1382C63.2144 29.0942 63.4211 29.0001 63.5987 28.8632C63.7763 28.7263 63.9199 28.5503 64.0184 28.3489C64.1169 28.1475 64.1676 27.9261 64.1666 27.7018C64.1657 27.4776 64.113 27.2566 64.0127 27.0561V27.0561ZM29.4415 15.4405C30.7704 13.5437 32.7845 12.2375 35.0584 11.7979C35.4885 16.7775 36.9311 21.6167 39.2977 26.0191C35.4153 25.4355 31.7285 23.9328 28.5443 21.6361C28.1971 20.6055 28.0973 19.5076 28.2532 18.4313C28.4091 17.355 28.8162 16.3305 29.4415 15.4408V15.4405ZM50.4591 37.6655C46.0627 45.5387 41.9142 52.967 25.0779 49.6118C24.8425 49.5643 24.5989 49.5758 24.3691 49.6454C24.1392 49.715 23.9302 49.8405 23.7606 50.0106C21.2612 52.5116 16.261 57.5101 11.3862 58.2421L9.24281 47.5271C14.398 48.9114 17.4616 45.8552 19.9894 43.323C20.137 43.1751 20.2512 42.9972 20.3241 42.8014C20.3971 42.6055 20.4272 42.3963 20.4123 42.1879C20.3975 41.9794 20.338 41.7766 20.2381 41.5931C20.1381 41.4096 19.9999 41.2496 19.8328 41.1241C13.8072 36.6053 13.4441 29.9787 13.7645 26.4314C14.2116 21.4683 16.365 17.1801 18.4684 15.246C22.1612 21.3182 30.8129 29.1667 42.2917 29.1667C45.8378 29.1667 48.8456 27.5133 51.5002 26.0531C53.9042 24.7315 55.9692 23.578 57.6611 24.1135C58.6309 24.4154 59.5934 25.3183 60.5336 26.8037C55.5092 28.6255 52.9457 33.2141 50.4591 37.666V37.6655Z" fill="#333333"/>
</svg>
