<svg width="70" height="70" viewBox="0 0 70 70" fill="none" xmlns="http://www.w3.org/2000/svg">
<g clip-path="url(#clip0)">
<path d="M61.7631 10.9483C59.5089 8.38233 58.2456 5.03436 54.8758 3.35108C53.128 2.4717 51.1997 1.89858 49.3371 1.21499C48.3385 0.850767 47.3169 0.55108 46.303 0.212017C45.4553 -0.0767328 44.7291 -0.169702 44.0411 0.610142C42.0986 2.81952 39.583 4.4328 36.5916 5.11639C35.8584 5.28001 35.1127 5.38172 34.3625 5.42045C33.6123 5.38177 32.8666 5.28006 32.1335 5.11639C29.141 4.4328 26.621 2.82061 24.685 0.610142C23.9927 -0.169702 23.2664 -0.0756391 22.4177 0.212017C21.4103 0.552173 20.3844 0.851861 19.3869 1.21499C17.5221 1.89858 15.5905 2.4717 13.8438 3.35108C10.475 5.03436 9.21064 8.38233 6.95861 10.9483C6.74314 11.1878 6.99033 11.9053 7.23861 12.2892C7.45627 12.6108 7.9758 12.7726 8.36846 13.0067C10.7091 14.3848 13.3997 15.262 15.4046 17.14C15.9777 17.6726 16.9096 17.875 17.5822 18.3475C17.953 18.6089 18.2866 19.0912 18.3435 19.5101C18.5053 20.6312 24.1896 21.0775 24.3689 25.4908C24.556 30.0998 12.5892 49.0239 11.3391 53.6012C10.6817 56.0075 8.24596 58.4323 7.77127 60.8736C7.27799 63.3826 7.01002 65.9267 6.65674 68.3603C7.63346 68.7158 8.22846 69.0844 8.84424 69.1281C11.7241 69.3337 16.4042 69.5601 19.2917 69.5601C21.9299 69.5601 31.7178 69.5153 34.3581 69.4617C36.993 69.5153 39.6333 69.5601 42.2681 69.5601C45.1567 69.5601 58.7728 69.3337 61.6592 69.1281C62.2805 69.0844 62.8733 68.7158 63.8467 68.3603C63.4935 65.9267 63.2255 63.3826 62.7333 60.8736C62.2564 58.4323 59.8228 56.0075 59.1655 53.6012C57.9186 49.025 42.3731 30.102 42.5558 25.493C42.6378 23.4925 48.3013 19.7114 48.5813 17.7251C48.6414 17.3051 50.7633 18.6111 51.1341 18.3486C51.8024 17.875 52.7419 17.6737 53.3117 17.1411C55.3166 15.2631 58.0094 14.3859 60.3478 13.0078C60.7383 12.7748 61.2622 12.613 61.4755 12.2903C61.7249 11.9053 61.9677 11.1856 61.7577 10.9483" stroke="black" stroke-width="0.5"/>
<path d="M34.5469 59.9145C34.1564 56.8903 34.3423 53.8453 33.8403 50.8222L33.7867 50.4929C33.7736 50.435 33.7648 50.3737 33.7495 50.2972C33.6894 49.9997 33.6226 49.7022 33.5559 49.4047C33.3875 48.6511 34.5633 33.752 34.3576 33.0017C34.0317 31.8204 33.7801 30.8525 33.5515 29.6493C33.2562 28.0459 33.2453 26.7258 33.7933 25.1136C34.4189 23.2728 33.5067 21.1367 34.8651 19.6536C35.2512 19.2368 35.6997 18.8945 36.1437 18.5259L36.182 18.4997C36.1583 18.2768 36.1284 18.0547 36.0923 17.8336C36.0059 17.3097 35.8944 16.7901 35.8331 16.2662C35.4689 13.1447 34.7547 10.0275 35.3606 6.88622C35.4689 6.32841 35.6198 5.79247 35.809 5.26528C35.3322 5.34075 34.8476 5.39216 34.3576 5.41841C33.6074 5.37972 32.8618 5.27801 32.1286 5.11434C29.1361 4.43075 26.6161 2.81856 24.6801 0.608094C23.9878 -0.17175 23.2615 -0.077687 22.4128 0.209969C21.4055 0.550126 20.3795 0.849813 19.382 1.21294C17.5172 1.89653 15.5856 2.46966 13.8389 3.34903C10.4701 5.03231 9.20576 8.38028 6.95373 10.9462C6.73826 11.1858 6.98545 11.9033 7.23373 12.2872C7.45139 12.6087 7.97092 12.7706 8.36357 13.0047C10.7042 14.3828 13.3948 15.26 15.3997 17.1379C15.9728 17.6706 16.9047 17.8729 17.5773 18.3454C17.9481 18.6068 18.2817 19.0892 18.3386 19.5081C18.5004 20.6292 24.1847 21.0754 24.364 25.4887C24.5511 30.0978 12.5844 49.0218 11.3342 53.5992C10.6769 56.0054 8.24107 58.4303 7.76639 60.8715C7.27311 63.3806 7.00514 65.9247 6.65186 68.3583C7.62857 68.7137 8.22357 69.0823 8.83936 69.1261C11.7192 69.3317 16.3994 69.5581 19.2869 69.5581C21.925 69.5581 31.7129 69.5133 34.3533 69.4597C35.692 69.4859 37.0286 69.5089 38.3695 69.5264C36.4062 66.5098 34.9723 63.2231 34.5436 59.9145" stroke="black" stroke-width="0.5"/>
<path fill-rule="evenodd" clip-rule="evenodd" d="M8.7207 8.51813C9.37805 7.71422 9.96211 6.85125 10.5527 5.99594C9.8943 6.79985 9.30914 7.66063 8.7207 8.51813Z" fill="#1A698C"/>
<path fill-rule="evenodd" clip-rule="evenodd" d="M17.5767 18.2547C17.9475 18.5172 18.2811 18.9962 18.338 19.4184C18.3708 19.6405 20.1941 18.0731 20.2258 18.2952L20.4008 17.7625C20.6513 17.0034 19.271 18.0994 19.7992 17.5175C19.7971 17.4978 19.7949 17.477 19.7905 17.453C19.7325 17.0352 19.3957 16.5495 19.0271 16.2892C18.3588 15.8167 17.4192 15.6166 16.8494 15.0839C14.8467 13.2059 12.155 12.3266 9.81331 10.9452C9.42394 10.7155 8.90003 10.5558 8.68456 10.232C8.48222 9.9214 8.27987 9.38109 8.33566 9.0639C7.90253 9.68078 7.44972 10.29 6.95206 10.8555C6.73659 11.0972 6.98378 11.8125 7.23206 12.1942C7.44972 12.518 7.96925 12.6798 8.36191 12.9084C10.7025 14.2898 13.3932 15.1637 15.398 17.0494C15.9711 17.5809 16.9041 17.7844 17.5767 18.2547Z" fill="#333333"/>
<path fill-rule="evenodd" clip-rule="evenodd" d="M60.0012 8.57062C59.3373 7.76671 58.7499 6.90593 58.1626 6.04843C58.8199 6.84796 59.4062 7.71202 60.0012 8.57062Z" fill="#1A698C"/>
<path fill-rule="evenodd" clip-rule="evenodd" d="M51.1363 18.3083C50.7655 18.5708 48.6437 17.2648 48.5835 17.6826C48.5529 17.9047 48.5201 18.1245 48.4851 18.3444C48.4264 18.1689 48.3695 17.9928 48.3145 17.8161C48.0618 17.0548 49.4399 18.1541 48.9138 17.57C48.916 17.5492 48.9237 17.5273 48.9237 17.5076C48.9795 17.0876 49.3163 16.6064 49.6893 16.3439C50.3565 15.8714 51.2949 15.6734 51.867 15.1342C53.8674 13.2562 56.5602 12.3791 58.9009 10.9998C59.2902 10.7691 59.8131 10.6094 60.0252 10.2823C60.2363 9.97171 60.4321 9.43468 60.3807 9.11749C60.8116 9.73218 61.2645 10.3381 61.7599 10.9069C61.9699 11.1464 61.7271 11.8639 61.4777 12.2478C61.2645 12.5716 60.7405 12.7345 60.3501 12.9631C58.0116 14.3445 55.3188 15.2206 53.314 17.1019C52.7441 17.6367 51.8046 17.8358 51.1363 18.3083Z" fill="#333333"/>
<path fill-rule="evenodd" clip-rule="evenodd" d="M22.8734 1.29828C25.1801 4.28313 28.1551 6.46297 31.7109 7.39047C32.5586 7.6125 33.4543 7.74047 34.36 7.79844C35.2634 7.74047 36.1559 7.6125 37.0036 7.39047C40.5582 6.46188 43.5376 4.28203 45.852 1.29828C46.2643 0.761253 46.6909 0.530472 47.1415 0.481253C46.8626 0.391566 46.5848 0.302972 46.3048 0.210003C45.4571 -0.078747 44.7309 -0.171716 44.0429 0.608128C42.1004 2.8175 39.5848 4.43078 36.5934 5.11438C35.8602 5.27799 35.1146 5.3797 34.3643 5.41844C33.6141 5.37976 32.8685 5.27804 32.1353 5.11438C29.1428 4.43078 26.6228 2.8186 24.6868 0.608128C23.9945 -0.171716 23.2682 -0.0776533 22.4195 0.210003C22.1428 0.302972 21.865 0.392659 21.585 0.481253C22.0389 0.529378 22.4621 0.760159 22.88 1.29828" fill="#333333"/>
<path fill-rule="evenodd" clip-rule="evenodd" d="M61.6547 66.3491C58.7727 66.5448 45.15 66.7756 42.2636 66.7756C39.6267 66.77 36.9899 66.7375 34.3536 66.6783C31.7144 66.7362 21.9253 66.7712 19.2883 66.7756C16.3997 66.7756 11.7206 66.5448 8.8408 66.3491C8.30158 66.3097 7.78205 66.0198 7.00877 65.7136C6.89393 66.6061 6.7758 67.4855 6.64893 68.3605C7.62564 68.7159 8.22065 69.0845 8.83643 69.1283C11.7163 69.3339 16.3964 69.5603 19.2839 69.5603C21.9221 69.5603 31.71 69.5155 34.3503 69.4619C36.9852 69.5155 39.6255 69.5603 42.2603 69.5603C45.1489 69.5603 58.765 69.3339 61.6514 69.1283C62.2727 69.0845 62.8655 68.7159 63.8389 68.3605C63.7121 67.4855 63.5939 66.6061 63.4791 65.7136C62.7091 66.0198 62.1885 66.3097 61.6492 66.3491" fill="#333333"/>
<path d="M24.2485 24.6094L23.8887 27.7309L23.9412 27.7397C36.4723 29.7817 42.8652 27.0375 42.8652 27.0375V24.6094C30.2795 28.805 24.2496 24.6094 24.2496 24.6094" fill="#333333"/>
</g>
<defs>
<clipPath id="clip0">
<rect width="70" height="70" fill="white"/>
</clipPath>
</defs>
</svg>
