<svg width="70" height="70" viewBox="0 0 70 70" fill="none" xmlns="http://www.w3.org/2000/svg">
<g clip-path="url(#clip0)">
<path d="M69.0769 30.0923L71 29.0909V24.8182L46 12L21 24.8182V29.0909L22.9231 30.0923V47.9176C22.9231 48.7633 23.1885 49.3975 23.7194 49.8203C24.2502 50.2431 24.9463 50.4545 25.8077 50.4545C26.6691 50.4545 27.3652 50.2431 27.896 49.8203C28.4269 49.3975 28.6923 48.7633 28.6923 47.9176V33.0298L43.1154 40.4403V56.4631C43.1154 57.3087 43.3808 57.9429 43.9117 58.3658C44.4425 58.7886 45.1386 59 46 59C46.8614 59 47.5575 58.7886 48.0883 58.3658C48.6192 57.9429 48.8846 57.3087 48.8846 56.4631V40.4403L63.3077 33.0298V47.9176C63.3077 48.7633 63.5731 49.3975 64.104 49.8203C64.6348 50.2431 65.3309 50.4545 66.1923 50.4545C67.0537 50.4545 67.7498 50.2431 68.2806 49.8203C68.8115 49.3975 69.0769 48.7633 69.0769 47.9176V30.0923ZM46 37.6364L22.9231 25.8864L46 14.1364L69.0769 25.8864L46 37.6364Z" fill="#333333"/>
<path d="M3.14281 36.0775C1.14469 32.3181 1.15 29.1003 2.06281 27.5575C2.4425 26.9159 2.98094 26.5625 3.57875 26.5625C3.6375 26.5625 3.69719 26.5659 3.75594 26.5731C4.73625 26.6906 5.11688 27.8038 5.64438 29.3441C6.01781 30.435 6.48156 31.7763 7.24563 33.0944C7.66969 32.5397 8.20438 32.075 8.78031 31.8012L8.77469 31.7981C8.79281 31.7909 8.80938 31.7859 8.8275 31.7784C8.98214 31.7057 9.14286 31.6468 9.30781 31.6022C9.36344 31.5881 9.41781 31.5772 9.47219 31.5656C13.5669 30.4856 14.8653 35.7112 12.6684 35.0531C12.0284 34.8612 11.5962 33.8147 10.2909 32.7628C9.30875 33.3591 8.6625 34.4206 8.88687 35.1962C9.63281 37.7756 11.8856 38.9484 14.4644 38.9484C15.0453 38.9484 15.6428 38.8891 16.2431 38.7725C16.4775 38.7258 16.7094 38.667 16.9378 38.5966C17.4073 38.456 17.8621 38.2701 18.2956 38.0416L19.375 38.9637C19.1082 39.3836 18.8074 39.7809 18.4756 40.1516C17.2753 41.4969 15.6816 42.4659 13.8366 42.8237C10.9425 43.3847 8.12469 42.3172 6.21156 40.2328C5.15281 38.8981 4.13406 38.3419 3.26219 38.1741C3.43094 40.4431 5.17562 43.4375 4.00219 43.4375C3.9575 43.4375 3.90812 43.4328 3.85469 43.4241C1.77594 43.0769 0.558437 40.465 0.627812 38.81C0.701875 37.0359 2.0825 36.3463 3.14281 36.0775ZM7.13313 36.3484C8.09875 39.15 11.0794 40.5728 14.1169 40.5728C14.9678 40.5728 15.8291 40.4425 16.6656 40.1944C16.8669 40.1045 17.0643 40.0064 17.2575 39.9003C17.0639 39.7123 16.8792 39.5153 16.7041 39.31C16.5853 39.34 16.4725 39.365 16.3619 39.3862C15.7206 39.5103 15.0819 39.5734 14.4641 39.5734C12.9412 39.5734 11.6119 39.1941 10.5606 38.4991C10.1791 38.6337 9.64062 38.5513 9.13469 38.2334C8.39219 37.7672 8.01406 36.9853 8.28969 36.4866C8.35969 36.3603 8.46875 36.27 8.59969 36.2059C8.4775 35.94 8.37094 35.6628 8.28594 35.3697C8.10031 34.7275 8.29562 33.9575 8.8225 33.2575C9.08426 32.914 9.39804 32.6135 9.7525 32.3669C9.67 32.3112 9.58344 32.2563 9.49469 32.2013C9.48414 32.2042 9.47338 32.2064 9.4625 32.2078C8.58062 32.3091 6.43219 34.3144 7.13313 36.3484V36.3484ZM3.7825 35.9534C5.49344 35.7137 6.57562 36.6303 6.57562 36.6303C6.16531 35.5122 6.3675 34.4316 6.86 33.6744C4.96031 30.5716 4.795 27.3272 3.68125 27.1937C3.64687 27.1894 3.61281 27.1875 3.57875 27.1875C2.11844 27.1875 1.06375 30.9722 3.7825 35.9534V35.9534ZM3.76906 42.7672C3.71438 42.3944 3.50781 41.7409 3.34781 41.2347C2.93375 39.9241 2.37812 38.1662 2.74844 36.8516C2.01469 37.1497 1.29875 37.7253 1.25219 38.8366C1.19625 40.1759 2.16688 42.3516 3.76906 42.7672" fill="#333333"/>
</g>
<defs>
<clipPath id="clip0">
<rect width="70" height="70" fill="white" transform="matrix(-1 0 0 1 70 0)"/>
</clipPath>
</defs>
</svg>
