<svg width="70" height="70" viewBox="0 0 70 70" fill="none" xmlns="http://www.w3.org/2000/svg">
<path d="M67.3077 28.8179L70 27.3913V21.3043L35 3.04348L-4.76837e-07 21.3043V27.3913L2.69231 28.8179V54.212C2.69231 55.4167 3.0639 56.3202 3.80709 56.9226C4.55028 57.5249 5.52484 57.8261 6.73077 57.8261C7.9367 57.8261 8.91126 57.5249 9.65445 56.9226C10.3976 56.3202 10.7692 55.4167 10.7692 54.212V33.0027L30.9615 43.5598V66.3859C30.9615 67.5906 31.3331 68.4941 32.0763 69.0965C32.8195 69.6988 33.7941 70 35 70C36.2059 70 37.1805 69.6988 37.9237 69.0965C38.6669 68.4941 39.0385 67.5906 39.0385 66.3859V43.5598L59.2308 33.0027V54.212C59.2308 55.4167 59.6024 56.3202 60.3456 56.9226C61.0887 57.5249 62.0633 57.8261 63.2692 57.8261C64.4752 57.8261 65.4497 57.5249 66.1929 56.9226C66.9361 56.3202 67.3077 55.4167 67.3077 54.212V28.8179ZM35 39.5652L2.69231 22.8261L35 6.08696L67.3077 22.8261L35 39.5652Z" fill="#333333"/>
<path d="M30.1428 22.0775C28.1447 18.3181 28.15 15.1003 29.0628 13.5575C29.4425 12.9159 29.9809 12.5625 30.5787 12.5625C30.6375 12.5625 30.6972 12.5659 30.7559 12.5731C31.7363 12.6906 32.1169 13.8038 32.6444 15.3441C33.0178 16.435 33.4816 17.7763 34.2456 19.0944C34.6697 18.5397 35.2044 18.075 35.7803 17.8012L35.7747 17.7981C35.7928 17.7909 35.8094 17.7859 35.8275 17.7784C35.9821 17.7057 36.1429 17.6468 36.3078 17.6022C36.3634 17.5881 36.4178 17.5772 36.4722 17.5656C40.5669 16.4856 41.8653 21.7112 39.6684 21.0531C39.0284 20.8612 38.5962 19.8147 37.2909 18.7628C36.3087 19.3591 35.6625 20.4206 35.8869 21.1962C36.6328 23.7756 38.8856 24.9484 41.4644 24.9484C42.0453 24.9484 42.6428 24.8891 43.2431 24.7725C43.4775 24.7258 43.7094 24.667 43.9378 24.5966C44.4073 24.456 44.8621 24.2701 45.2956 24.0416L46.375 24.9637C46.1082 25.3836 45.8074 25.7809 45.4756 26.1516C44.2753 27.4969 42.6816 28.4659 40.8366 28.8237C37.9425 29.3847 35.1247 28.3172 33.2116 26.2328C32.1528 24.8981 31.1341 24.3419 30.2622 24.1741C30.4309 26.4431 32.1756 29.4375 31.0022 29.4375C30.9575 29.4375 30.9081 29.4328 30.8547 29.4241C28.7759 29.0769 27.5584 26.465 27.6278 24.81C27.7019 23.0359 29.0825 22.3463 30.1428 22.0775ZM34.1331 22.3484C35.0988 25.15 38.0794 26.5728 41.1169 26.5728C41.9678 26.5728 42.8291 26.4425 43.6656 26.1944C43.8669 26.1045 44.0643 26.0064 44.2575 25.9003C44.0639 25.7123 43.8792 25.5153 43.7041 25.31C43.5853 25.34 43.4725 25.365 43.3619 25.3862C42.7206 25.5103 42.0819 25.5734 41.4641 25.5734C39.9412 25.5734 38.6119 25.1941 37.5606 24.4991C37.1791 24.6337 36.6406 24.5513 36.1347 24.2334C35.3922 23.7672 35.0141 22.9853 35.2897 22.4866C35.3597 22.3603 35.4688 22.27 35.5997 22.2059C35.4775 21.94 35.3709 21.6628 35.2859 21.3697C35.1003 20.7275 35.2956 19.9575 35.8225 19.2575C36.0843 18.914 36.398 18.6135 36.7525 18.3669C36.67 18.3112 36.5834 18.2563 36.4947 18.2013C36.4841 18.2042 36.4734 18.2064 36.4625 18.2078C35.5806 18.3091 33.4322 20.3144 34.1331 22.3484V22.3484ZM30.7825 21.9534C32.4934 21.7137 33.5756 22.6303 33.5756 22.6303C33.1653 21.5122 33.3675 20.4316 33.86 19.6744C31.9603 16.5716 31.795 13.3272 30.6812 13.1937C30.6469 13.1894 30.6128 13.1875 30.5787 13.1875C29.1184 13.1875 28.0638 16.9722 30.7825 21.9534V21.9534ZM30.7691 28.7672C30.7144 28.3944 30.5078 27.7409 30.3478 27.2347C29.9338 25.9241 29.3781 24.1662 29.7484 22.8516C29.0147 23.1497 28.2987 23.7253 28.2522 24.8366C28.1962 26.1759 29.1669 28.3516 30.7691 28.7672" fill="#333333"/>
</svg>
