<svg width="70" height="70" viewBox="0 0 70 70" fill="none" xmlns="http://www.w3.org/2000/svg">
<path d="M67.3077 28.8179L70 27.3913V21.3043L35 3.04348L-4.76837e-07 21.3043V27.3913L2.69231 28.8179V54.212C2.69231 55.4167 3.0639 56.3202 3.80709 56.9226C4.55028 57.5249 5.52484 57.8261 6.73077 57.8261C7.9367 57.8261 8.91126 57.5249 9.65445 56.9226C10.3976 56.3202 10.7692 55.4167 10.7692 54.212V33.0027L30.9615 43.5598V66.3859C30.9615 67.5906 31.3331 68.4941 32.0763 69.0965C32.8195 69.6988 33.7941 70 35 70C36.2059 70 37.1805 69.6988 37.9237 69.0965C38.6669 68.4941 39.0385 67.5906 39.0385 66.3859V43.5598L59.2308 33.0027V54.212C59.2308 55.4167 59.6024 56.3202 60.3456 56.9226C61.0887 57.5249 62.0633 57.8261 63.2692 57.8261C64.4752 57.8261 65.4497 57.5249 66.1929 56.9226C66.9361 56.3202 67.3077 55.4167 67.3077 54.212V28.8179ZM35 39.5652L2.69231 22.8261L35 6.08696L67.3077 22.8261L35 39.5652Z" fill="#333333"/>
<path d="M14.1428 50.0775C12.1447 46.3181 12.15 43.1003 13.0628 41.5575C13.4425 40.9159 13.9809 40.5625 14.5787 40.5625C14.6375 40.5625 14.6972 40.5659 14.7559 40.5731C15.7363 40.6906 16.1169 41.8038 16.6444 43.3441C17.0178 44.435 17.4816 45.7763 18.2456 47.0944C18.6697 46.5397 19.2044 46.075 19.7803 45.8012L19.7747 45.7981C19.7928 45.7909 19.8094 45.7859 19.8275 45.7784C19.9821 45.7057 20.1429 45.6468 20.3078 45.6022C20.3634 45.5881 20.4178 45.5772 20.4722 45.5656C24.5669 44.4856 25.8653 49.7112 23.6684 49.0531C23.0284 48.8612 22.5962 47.8147 21.2909 46.7628C20.3087 47.3591 19.6625 48.4206 19.8869 49.1962C20.6328 51.7756 22.8856 52.9484 25.4644 52.9484C26.0453 52.9484 26.6428 52.8891 27.2431 52.7725C27.4775 52.7258 27.7094 52.667 27.9378 52.5966C28.4073 52.456 28.8621 52.2701 29.2956 52.0416L30.375 52.9637C30.1082 53.3836 29.8074 53.7809 29.4756 54.1516C28.2753 55.4969 26.6816 56.4659 24.8366 56.8237C21.9425 57.3847 19.1247 56.3172 17.2116 54.2328C16.1528 52.8981 15.1341 52.3419 14.2622 52.1741C14.4309 54.4431 16.1756 57.4375 15.0022 57.4375C14.9575 57.4375 14.9081 57.4328 14.8547 57.4241C12.7759 57.0769 11.5584 54.465 11.6278 52.81C11.7019 51.0359 13.0825 50.3463 14.1428 50.0775ZM18.1331 50.3484C19.0988 53.15 22.0794 54.5728 25.1169 54.5728C25.9678 54.5728 26.8291 54.4425 27.6656 54.1944C27.8669 54.1045 28.0643 54.0064 28.2575 53.9003C28.0639 53.7123 27.8792 53.5153 27.7041 53.31C27.5853 53.34 27.4725 53.365 27.3619 53.3862C26.7206 53.5103 26.0819 53.5734 25.4641 53.5734C23.9412 53.5734 22.6119 53.1941 21.5606 52.4991C21.1791 52.6337 20.6406 52.5513 20.1347 52.2334C19.3922 51.7672 19.0141 50.9853 19.2897 50.4866C19.3597 50.3603 19.4688 50.27 19.5997 50.2059C19.4775 49.94 19.3709 49.6628 19.2859 49.3697C19.1003 48.7275 19.2956 47.9575 19.8225 47.2575C20.0843 46.914 20.398 46.6135 20.7525 46.3669C20.67 46.3112 20.5834 46.2563 20.4947 46.2013C20.4841 46.2042 20.4734 46.2064 20.4625 46.2078C19.5806 46.3091 17.4322 48.3144 18.1331 50.3484V50.3484ZM14.7825 49.9534C16.4934 49.7137 17.5756 50.6303 17.5756 50.6303C17.1653 49.5122 17.3675 48.4316 17.86 47.6744C15.9603 44.5716 15.795 41.3272 14.6812 41.1937C14.6469 41.1894 14.6128 41.1875 14.5787 41.1875C13.1184 41.1875 12.0638 44.9722 14.7825 49.9534V49.9534ZM14.7691 56.7672C14.7144 56.3944 14.5078 55.7409 14.3478 55.2347C13.9338 53.9241 13.3781 52.1662 13.7484 50.8516C13.0147 51.1497 12.2987 51.7253 12.2522 52.8366C12.1962 54.1759 13.1669 56.3516 14.7691 56.7672" fill="#333333"/>
</svg>
