<svg width="71" height="70" viewBox="0 0 71 70" fill="none" xmlns="http://www.w3.org/2000/svg">
<path d="M39.8333 19.6308L63.5098 8C59.298 10.2944 62.0069 16.7446 64.1024 20.0542C64.274 20.3252 64.3863 20.6279 64.4221 20.9466L65.1482 27.4156C65.1982 27.8619 65.3971 28.2784 65.7127 28.5979L68.3176 31.2352C68.7485 31.6715 68.9554 32.2813 68.8791 32.8897L66.2473 53.8585C65.9865 55.937 63.4199 56.0131 62.1373 54.3569C61.6226 53.6923 50.8137 43.8892 49.7843 43.8892C49.0552 43.8892 46.1209 42.0661 44.2669 40.8408C43.8415 40.5597 43.3281 40.4507 42.8203 40.4977C42.085 40.5656 41.1749 40.5874 40.6912 40.4C40.0049 40.1342 37.0882 38.2954 35.7157 37.4092C30.6186 34.4475 22.7612 36.2213 18.7332 37.7314C18.1817 37.9382 17.772 38.3985 17.5977 38.9612L16.9432 41.0738C16.877 41.2877 16.7753 41.4889 16.6424 41.6692L16.3757 42.0306C16.1221 42.3745 15.9853 42.7905 15.9853 43.2178V44.1885C15.9853 44.6403 16.1467 45.0736 16.382 45.4592C16.894 46.2983 17.3844 47.5367 16.8431 48.3754C16.772 48.4856 16.6954 48.5944 16.6145 48.7012C15.7587 49.8321 14.1504 49.181 13.884 47.788L13.8445 47.581C13.6875 46.7601 13.0365 46.1233 12.2122 45.9845L10.3075 45.6636C9.87286 45.5905 9.47461 45.3758 9.17459 45.0529L8.62811 44.4649C8.28426 44.0949 8.09314 43.6085 8.09314 43.1034V41.3969C7.97876 40.5108 7.47549 38.8714 6.37745 39.4031C5.27941 39.9348 4.31863 38.7385 3.97549 38.0738L2.19602 35.0972C2.12595 34.98 2.02072 34.8879 1.8953 34.8339L1.55518 34.6875C0.983043 34.4412 1.15893 33.5877 1.78182 33.5877C1.97328 33.5877 2.1521 33.4921 2.25847 33.3329L3.38158 31.652C3.75268 31.0966 4.37656 30.7631 5.04454 30.7631H6.37745C8.60784 30.7856 13.8235 30.4517 16.8431 28.9354L21.1894 26.7529C21.3789 26.6577 21.5824 26.5933 21.7922 26.562L25.6258 25.9909C25.8315 25.9602 26.0312 25.8977 26.2176 25.8055L34 21.9569L39.8333 19.6308Z" fill="#333333" stroke="#333333"/>
</svg>
