<svg width="70" height="70" viewBox="0 0 70 70" fill="none" xmlns="http://www.w3.org/2000/svg">
<path d="M58.3335 58.3333C54.2793 58.3333 50.2252 56.9625 46.6668 54.4542C39.5502 59.4417 30.4502 59.4417 23.3335 54.4542C19.7752 56.9625 15.721 58.3333 11.6668 58.3333H5.8335V64.1667H11.6668C15.6627 64.1667 19.6585 63.1458 23.3335 61.25C30.6252 65.0417 39.3752 65.0417 46.6668 61.25C50.3418 63.1458 54.3085 64.1667 58.3335 64.1667H64.1668V58.3333H58.3335ZM60.6085 55.4167H58.3335C54.8918 55.4167 51.4502 54.25 48.3585 52.0625L46.6668 50.8958L44.9752 52.0625C41.971 54.1625 38.5293 55.2708 35.0002 55.2708C31.4127 55.2708 27.971 54.1625 24.9668 52.0625L23.3335 50.8958L21.671 52.0625C18.5502 54.25 15.1085 55.4167 11.6668 55.4167H9.39183C10.9377 51.1583 16.2752 43.75 35.0002 43.75C40.8335 43.75 43.7502 44.45 43.7502 44.45C45.7335 40.4542 49.0877 31.4125 46.6668 19.8917L49.7585 21.9625C50.721 26.1333 52.5002 34.2708 49.0002 45.6458C56.671 48.125 59.5585 52.5 60.6085 55.4167V55.4167ZM64.1668 22.1375C61.8627 18.9583 58.3335 16.6542 54.1918 16.1292C54.5418 16.5375 54.8627 17.0042 55.1835 17.5C56.8455 20.154 57.6146 23.2702 57.3785 26.3927C57.1423 29.5153 55.9132 32.4803 53.871 34.8542C55.5918 30.625 55.4168 25.6375 52.7335 21.4667C52.5002 21.2333 52.3835 21 52.2085 20.7375C51.0418 19.0458 49.4668 17.675 47.7752 16.6833C41.8543 18.5792 37.5668 24.1208 37.5668 30.625C37.5668 32.1708 37.8002 33.6292 38.2085 35C36.4585 32.5792 35.4668 29.6625 35.4668 26.4542C35.4668 21.6125 37.8002 17.3542 41.4168 14.6708C38.3835 14.4375 35.2627 15.1083 32.4918 16.8583C31.2085 17.6458 30.1002 18.6083 29.1668 19.7167C30.3043 16.975 32.2293 14.5833 35.0002 12.8333C37.9288 10.9496 41.4493 10.2123 44.8877 10.7625C44.0184 9.55704 42.9768 8.48587 41.796 7.58334C40.6002 6.67918 39.2877 5.97918 37.9168 5.48334C40.8335 5.57084 43.8668 6.53334 46.4043 8.42918C47.6877 9.39168 48.7085 10.5583 49.5835 11.8125C49.7585 11.8125 49.9335 11.7833 50.1377 11.7833C53.276 11.7817 56.3322 12.7865 58.8574 14.6501C61.3825 16.5138 63.2434 19.1381 64.1668 22.1375V22.1375Z" fill="#333333"/>
</svg>
