<svg width="70" height="70" viewBox="0 0 70 70" fill="none" xmlns="http://www.w3.org/2000/svg">
<path d="M20.4165 40.8333V31.8208C18.3165 30.8583 16.3623 29.6917 14.5832 28.3208V40.8333H20.4165ZM14.5832 52.5H8.74984V46.6667H2.9165V40.8333H8.74984V20.4167H14.5832V24.5875C19.8332 29.1667 27.0373 32.0833 34.9998 32.0833C42.9623 32.0833 50.1665 29.1667 55.4165 24.5875V20.4167H61.2498V40.8333H67.0832V46.6667H61.2498V52.5H55.4165V46.6667H14.5832V52.5ZM49.5832 31.8208V40.8333H55.4165V28.3208C53.6373 29.6917 51.6832 30.8583 49.5832 31.8208ZM46.6665 40.8333V33.0167C44.7998 33.6875 42.8457 34.1833 40.8332 34.5333V40.8333H46.6665ZM37.9165 40.8333V34.8833L34.9998 35L32.0832 34.8833V40.8333H37.9165ZM29.1665 40.8333V34.5333C27.154 34.1833 25.1998 33.6875 23.3332 33.0167V40.8333H29.1665Z" fill="#333333"/>
</svg>
