<svg width="70" height="70" viewBox="0 0 70 70" fill="none" xmlns="http://www.w3.org/2000/svg">
<path d="M35.8752 5.83339H35.0002C31.1699 5.83339 27.3772 6.58781 23.8386 8.05357C20.2999 9.51934 17.0846 11.6677 14.3762 14.3761C8.9064 19.8459 5.8335 27.2646 5.8335 35.0001C5.8335 42.7355 8.9064 50.1542 14.3762 55.624C17.0846 58.3324 20.2999 60.4808 23.8386 61.9466C27.3772 63.4123 31.1699 64.1667 35.0002 64.1667C43.7502 64.1667 48.7085 61.2501 53.9585 56.8751C37.9168 61.2501 23.3335 49.5834 23.3335 35.0001C23.3335 20.4167 37.9168 8.75006 53.9585 13.1251C51.5876 10.7587 48.7648 8.89365 45.6581 7.64095C42.5514 6.38825 39.2244 5.77353 35.8752 5.83339V5.83339ZM49.0002 18.0834L44.6252 28.2917L33.8335 29.1667L42.2918 36.4584L39.6668 46.6667L49.0002 40.8334L58.3335 46.6667L55.4168 36.4584L64.1668 29.1667L53.3752 28.2917L49.0002 18.0834V18.0834Z" fill="#333333"/>
</svg>
