<svg width="70" height="70" viewBox="0 0 70 70" fill="none" xmlns="http://www.w3.org/2000/svg">
<path d="M34.9995 5.83331L26.5412 20.4166H9.62451L18.3745 35L9.62451 49.5833H26.5412L34.9995 64.1667L43.4578 49.5833H60.3745L51.6245 35L60.3745 20.4166H43.4578L34.9995 5.83331ZM34.9995 14.5833L38.4995 20.4166H31.4995L34.9995 14.5833ZM23.9162 24.7916L20.7078 30.625L17.2078 24.7916H23.9162ZM29.1662 24.7916H40.8328L46.6662 35L40.8328 45.2083H29.1662L23.3328 35L29.1662 24.7916ZM52.4995 24.7916L48.9995 30.625L45.7912 24.7916H52.4995ZM20.7078 39.375L23.9162 45.2083H17.4995L20.7078 39.375ZM49.2912 39.375L52.7912 45.2083H46.0828L49.2912 39.375ZM38.7912 49.5833L34.9995 55.4167L31.4995 49.5833H38.7912Z" fill="#333333"/>
</svg>
