<svg width="72" height="72" viewBox="0 0 72 72" fill="none" xmlns="http://www.w3.org/2000/svg">
<path d="M2.74822 21.1695C-1.14979 24.7608 2.3266 27.2197 4.89389 28.1446C5.17515 28.2459 5.43789 28.3933 5.65774 28.5959L6.61137 29.4746C7.04063 29.8701 7.89914 30.8983 7.89914 31.8475C7.89914 32.7966 11.3332 33.0339 13.0502 33.0339C13.9087 33.0339 15.8833 32.7966 16.9136 31.8475C18.2013 30.661 18.2013 31.8475 19.4891 31.8475H23.3524H25.1471C25.6492 31.8475 26.133 32.0363 26.5022 32.3766L27.8587 33.6262C28.2697 34.0049 28.5035 34.5383 28.5035 35.0971V36.0855C28.5035 36.4187 28.5885 36.7455 28.7371 37.0438C29.1854 37.9437 29.7913 39.3552 29.7913 40.1525C29.7913 40.9498 30.397 41.8029 30.8453 42.2899C30.9942 42.4517 31.1326 42.624 31.2375 42.8173L32.1246 44.4521C32.2836 44.7449 32.3668 45.0728 32.3668 45.406V46.7635C32.3668 47.0967 32.2836 47.4246 32.1246 47.7174L31.3212 49.1978C31.1623 49.4907 31.0791 49.8186 31.0791 50.1518V51.5092C31.0791 51.8424 31.1623 52.1703 31.3212 52.4632L32.1246 53.9436C32.2836 54.2364 32.3668 54.5644 32.3668 54.8976V57.4414C32.3668 57.7746 32.4501 58.1025 32.609 58.3954L33.4962 60.0301C33.6011 60.2234 33.737 60.398 33.8987 60.547L36.2301 62.6949C37.5179 63.8814 36.2301 65.0678 34.9424 66.2542C34.1251 67.0072 34.3344 68.3076 34.6701 69.208C34.8209 69.6124 35.1529 69.9135 35.5515 70.0791C36.53 70.4856 37.9749 71 38.8057 71H42.669C43.9568 71 43.9568 69.8136 45.2445 69.8136C46.5323 69.8136 46.5323 68.6271 47.8201 67.4407L49.7509 65.6618C50.162 65.2831 50.3956 64.7499 50.3956 64.191V63.9756C50.3956 63.195 50.8607 62.5003 51.5126 62.0708C52.2525 61.5833 52.9712 60.9361 52.9712 60.322C52.9712 59.2378 54.259 58.2567 54.259 57.1725V56.7627C54.259 55.5763 54.259 55.5763 55.5467 54.3898C56.1633 53.8218 57.7032 53.9897 58.4647 53.6389L58.6611 53.5484C59.1176 53.3381 59.41 52.8814 59.41 52.3788V50.8305V47.2712V46.5921C59.41 46.2589 59.3268 45.9314 59.1679 45.6385L58.3645 44.1581C58.2055 43.8653 58.1223 43.5373 58.1223 43.2041V41.8467C58.1223 41.5135 58.2055 41.1856 58.3645 40.8927L59.0929 39.5505C59.2988 39.1711 59.6219 38.8685 60.0139 38.6879L61.9856 37.7797L63.7124 36.9842C64.2503 36.7364 64.6508 36.263 64.8058 35.6914L65.6412 32.6128C65.7746 32.1212 66.0906 31.699 66.5247 31.4324L69.5467 29.5763C69.6568 29.5086 69.7601 29.4305 69.8551 29.3429L70.4681 28.7782C70.8071 28.4658 71 28.0259 71 27.5649V26.9715C71 26.3881 70.5271 25.9153 69.9438 25.9153C69.7912 25.9153 69.6405 25.9483 69.5019 26.0121L67.535 26.9182C67.2726 27.0391 66.9876 27.1017 66.6987 27.1017H63.2734C62.407 27.1017 61.4799 26.5423 60.9516 26.1292C60.7784 25.9937 60.6437 25.8177 60.5435 25.6219C60.0913 24.7374 59.41 23.2015 59.41 22.3559C59.41 21.1695 58.1223 21.1695 58.1223 19.9831C58.1223 19.2218 57.0178 18.4097 56.1376 17.9139C55.7615 17.7021 55.4355 17.4052 55.2296 17.0258L54.259 15.2373L53.2134 13.3107C53.0544 13.0178 52.9712 12.6899 52.9712 12.3567V10.8422C52.9712 10.6102 52.9324 10.38 52.8469 10.1643C52.3522 8.91761 51.338 6.9322 50.3956 6.9322H48.1201C47.9211 6.9322 47.7234 6.9025 47.5331 6.84408L44.2437 5.83389C44.0535 5.77547 43.8558 5.74576 43.6568 5.74576H41.3812H38.8057C37.8413 5.74576 38.1919 7.52048 37.2985 7.88366C36.9534 8.02393 36.5866 8.11864 36.2301 8.11864C35.7573 8.11864 35.4473 7.95205 35.2502 7.73355C34.8758 7.31858 34.7085 6.71677 34.2975 6.3381L33.8865 5.95944C33.7329 5.81786 33.5579 5.70124 33.3682 5.61382L31.2894 4.65621C31.1508 4.59238 31 4.55932 30.8475 4.55932C30.2642 4.55932 29.7913 4.08645 29.7913 3.50313V2.18644C29.7913 1.53119 29.2603 1 28.605 1H27.2157H23.3524C22.0646 1 22.0646 2.18644 20.7769 2.18644H18.2013H14.338C13.9862 2.18644 13.7245 2.37093 13.5324 2.6454C12.899 3.55032 12.114 4.61396 11.1803 5.20403C11.0301 5.29893 10.878 5.40669 10.7264 5.52878C10.5552 5.66672 10.4212 5.84438 10.3163 6.03766L9.39445 7.73624C9.25825 7.9872 9.18691 8.2682 9.18691 8.55373C9.18691 9.03263 8.98654 9.48969 8.63433 9.81419L8.37269 10.0552C8.06818 10.3358 8.05562 10.4915 7.64159 10.4915C7.22755 10.4915 6.43533 10.6421 6.17336 10.9627C5.76522 11.4622 5.3236 12.1837 5.3236 12.8644C5.3236 13.3515 5.09746 13.6512 4.81928 13.8274C4.43448 14.0713 4.03582 14.4201 4.03582 14.8757C4.03582 15.1062 3.93939 15.3261 3.76988 15.4823L3.18433 16.0218C2.90625 16.278 2.74805 16.6388 2.74805 17.0169C2.74805 17.3951 2.90625 17.7559 3.18433 18.0121L3.59952 18.3946C3.87761 18.6509 4.03582 19.0117 4.03582 19.3899C4.03582 19.768 3.87764 20.1288 3.59959 20.385L2.74822 21.1695Z" stroke="#333333"/>
</svg>
