<svg width="72" height="71" viewBox="0 0 72 71" fill="none" xmlns="http://www.w3.org/2000/svg">
<path d="M2.65872 41.7273H2.14754C1.51377 41.7273 1.13016 41.2284 1.49321 40.7089C2.95621 38.6155 7.34607 34.2391 10.1803 29C12.9344 23.9091 22.8033 15.8485 27.3934 12.4545C30.8361 10.3333 38.8689 5.58182 43.459 3.54545C48.0492 1.50909 58.377 1 62.9672 1H65.5202C66.0865 1 66.6263 1.24011 67.0056 1.66073L68.1311 2.90909C68.438 3.24939 68.9719 3.24939 69.2787 2.90909C69.5855 2.56879 70.1194 2.56879 70.4262 2.90909L70.7047 3.21797C70.8948 3.42878 71 3.70255 71 3.9864V5.91202C71 6.03104 70.9894 6.14983 70.9683 6.26695L69.8525 12.4545L68.7049 16.2727L67.8302 18.213C67.6531 18.6059 67.3538 18.9311 66.9768 19.1401L65.5542 19.929C65.3609 20.0362 65.1868 20.1747 65.0388 20.3388L64.3383 21.1157C64.1903 21.2799 64.0161 21.4183 63.8228 21.5255L62.8497 22.0651C62.214 22.4177 61.8197 23.0871 61.8197 23.814V25.1818C61.8197 26.2421 60.6721 27.314 60.6721 28.3742V30.2727C60.6721 31.5455 60.6721 31.5455 59.5246 31.5455C58.6804 31.5455 58.4184 32.9804 58.3817 33.871C58.3759 34.0128 58.3244 34.1492 58.2294 34.2547C57.8774 34.645 57.2295 34.3962 57.2295 33.8706V31.5455V29V26.8845C57.2295 26.6011 57.1693 26.3209 57.0528 26.0626L56.4513 24.7284C56.2265 24.2297 55.7303 23.9091 55.1833 23.9091C55.0187 23.9091 54.8554 23.9383 54.701 23.9954L51.8367 25.0543C51.6101 25.1381 51.4073 25.2755 51.2456 25.4549C50.7334 26.0229 50.7334 26.8862 51.2456 27.4542L51.4918 27.7273L52.4678 28.8097C52.577 28.9309 52.7324 29 52.8955 29C53.3136 29 53.5924 29.4315 53.4205 29.8126L52.7793 31.235C52.687 31.4396 52.6393 31.6615 52.6393 31.886V32.0497C52.6393 32.5444 52.8227 33.0215 53.154 33.3889L53.2723 33.5201C53.6035 33.8876 53.7869 34.3647 53.7869 34.8594V35.3636V37.4791C53.7869 37.7625 53.7266 38.0427 53.6102 38.3011L52.6393 40.4545L51.6203 42.7149C51.5352 42.9038 51.4212 43.0783 51.2824 43.2322L49.5266 45.1796C49.3099 45.4199 49.0389 45.6047 48.7339 45.7127C47.4715 46.1595 45.4154 46.8182 44.6066 46.8182H42.669C42.4323 46.8182 42.1978 46.8602 41.9758 46.9423L40.6316 47.4392C39.6409 47.8055 39.1058 48.8791 39.4098 49.8908L40.0164 51.9091L41.1639 54.4545L41.8477 56.7295C42.1184 57.6303 41.7242 58.6496 40.7947 58.7938C40.0997 58.9016 39.3626 58.8203 38.8689 58.2727C37.9508 57.2545 36.9563 57 36.5738 57C35.6895 57 35.2234 58.0478 35.8156 58.7045L36.3653 59.3143C36.5026 59.4665 36.6044 59.6473 36.6634 59.8435L37.7213 63.3636L38.6921 65.5171C38.8086 65.7755 38.8689 66.0557 38.8689 66.3391V68.3369C38.8689 69.6282 37.5822 70.5243 36.3709 70.0765C35.7818 69.8587 35.3429 69.3575 35.2048 68.7447L34.3276 64.8535C34.2951 64.7092 34.2787 64.5617 34.2787 64.4137V64.1321C34.2787 63.6374 34.0857 63.1659 33.817 62.7505C33.4751 62.2217 33.1311 61.5009 33.1311 60.8182C33.1311 60.1355 32.7872 59.4147 32.4453 58.8859C32.1766 58.4704 31.9836 57.9989 31.9836 57.5042V56.1573C31.9836 55.8738 31.9234 55.5937 31.8069 55.3353L31.3077 54.228C31.0206 53.5912 30.387 53.1818 29.6885 53.1818C29.0548 53.1818 28.541 52.6681 28.541 52.0344V50.6364V49.2686C28.541 48.5417 28.1466 47.8722 27.5109 47.5197L26.6873 47.0629C26.3978 46.9024 26.0722 46.8182 25.7412 46.8182C25.3237 46.8182 24.9186 46.9533 24.5773 47.1937C23.3107 48.0861 21.3047 49.3636 20.5082 49.3636C19.7323 49.3636 18.9018 49.9697 18.4323 50.4135C18.2817 50.5558 18.1715 50.733 18.0785 50.9181C17.6296 51.8117 16.7429 53.1818 15.918 53.1818C14.7705 53.1818 15.918 55.7273 15.918 57C15.918 58.0182 15.153 59.1212 14.7705 59.5455C14.388 59.9697 13.3934 60.8182 12.4754 60.8182C11.5574 60.8182 11.3279 59.9697 11.3279 59.5455C11.3279 58.697 11.0984 56.7455 10.1803 55.7273C9.03279 54.4545 10.1803 54.4545 10.1803 53.1818V50.6364C10.1803 49.7879 9.95082 48.0909 9.03279 48.0909C8.43228 48.0909 8.45371 47.3648 8.64744 46.6251C8.78379 46.1044 8.42349 45.5455 7.88525 45.5455H6.7377H5.59016C5.20765 45.5455 4.44262 45.2909 4.44262 44.2727C4.44262 43.6852 4.18794 43.352 3.89899 43.1752C3.59921 42.9917 3.29508 42.7151 3.29508 42.3636C3.29508 42.0122 3.01017 41.7273 2.65872 41.7273Z" stroke="#333333"/>
</svg>
