<svg width="72" height="72" viewBox="0 0 72 72" fill="none" xmlns="http://www.w3.org/2000/svg">
<path d="M3.49605 41.8333H2.70173C2.03835 41.8333 1.63817 42.6779 1.79324 43.3229C1.8296 43.4741 1.85087 43.6272 1.85087 43.7778C1.85087 44.75 1 43.7778 1 44.75V46.6944C1 47.4722 1.56724 47.6667 1.85087 47.6667H3.5526H4.72336C5.07135 47.6667 5.41326 47.5759 5.71542 47.4032L6.44366 46.9872C6.76051 46.8062 6.95606 46.4692 6.95606 46.1043C6.95606 45.858 7.04865 45.6223 7.1889 45.4198C7.47256 45.0103 7.80692 44.3749 7.80692 43.7778V43.3907C7.80692 43.0133 7.9439 42.649 8.1924 42.3651C8.48815 42.0272 8.91537 41.8333 9.36445 41.8333H10.303C10.8796 41.8333 11.4282 42.0822 11.808 42.5162L12.0613 42.8056L13.5596 44.5176C13.6944 44.6716 13.8047 44.8454 13.8868 45.033L14.3485 46.088C14.5208 46.4818 14.8154 46.8096 15.1886 47.0228L15.4714 47.1844C15.9945 47.4832 16.6366 47.4832 17.1597 47.1844L17.5049 46.9872C17.8218 46.8062 18.0173 46.4692 18.0173 46.1043C18.0173 45.858 17.9247 45.6223 17.7845 45.4198C17.6169 45.1779 17.4317 44.8572 17.3081 44.5122C17.1448 44.0561 17.0004 43.5619 16.6112 43.2733C16.2771 43.0255 15.8613 42.8056 15.4647 42.8056C14.784 42.8056 14.6138 41.5093 14.6138 40.8611V40.2957C14.6138 40.0334 14.709 39.7801 14.8817 39.5828C15.2209 39.1952 15.7861 39.1003 16.2333 39.3558L16.8765 39.7232C17.0684 39.8329 17.2408 39.9738 17.3864 40.1402L17.8139 40.6287C17.9487 40.7827 18.0591 40.9565 18.1411 41.1441L18.8682 42.8056L19.5513 44.3667C19.6619 44.6195 19.719 44.8925 19.719 45.1684V46.276C19.719 46.552 19.7762 46.825 19.8868 47.0778L20.3002 48.0225C20.464 48.3969 20.834 48.6389 21.2428 48.6389H21.2994C21.8364 48.6389 22.2716 48.2036 22.2716 47.6667V45.7222V45.3353C22.2716 44.958 22.4086 44.5935 22.6571 44.3096L22.7727 44.1774C22.995 43.9235 23.3161 43.7778 23.6536 43.7778C24.3001 43.7778 24.8242 43.2537 24.8242 42.6072V42.3644C24.8242 42.0221 24.9691 41.6976 25.0937 41.3787C25.2518 40.9735 25.2858 40.4163 24.8242 39.8889C24.1435 39.1111 25.1079 38.9167 25.6751 38.9167H26.526C27.4658 38.9167 28.0713 39.7765 28.5916 40.5592C28.7135 40.7425 28.8727 40.8611 29.0786 40.8611C29.209 40.8611 29.2999 40.8373 29.3595 40.7966C29.8865 40.4366 29.2419 39.5157 29.4977 38.931L29.7946 38.2527C29.8765 38.0654 30.0615 37.9444 30.2659 37.9444C30.55 37.9444 30.7803 38.1748 30.7803 38.4589V38.6511C30.7803 38.8223 30.8424 38.9877 30.9552 39.1165L31.3795 39.6014C31.5417 39.7867 31.6312 40.0247 31.6312 40.271C31.6312 40.6359 31.8267 40.9728 32.1436 41.1539L32.4887 41.351C33.0107 41.6493 33.3329 42.2044 33.3329 42.8056V42.9269C33.3329 43.3968 32.9519 43.7778 32.482 43.7778H31.2607C30.9459 43.7778 30.6365 43.6956 30.3632 43.5395C29.6158 43.1125 28.6948 43.357 27.8931 43.6702C27.7228 43.7368 27.548 43.7778 27.3768 43.7778C26.526 43.7778 27.3768 43.7778 27.3768 44.75C27.3768 44.9572 27.3366 45.077 27.2722 45.1351C26.8442 45.5216 26.1953 44.75 25.6187 44.75H24.8242C24.5054 44.75 24.423 44.8922 24.4547 45.0766C24.5366 45.5542 24.8242 45.9893 24.8242 46.4738V46.6944C24.8242 47.2314 25.2595 47.6667 25.7965 47.6667H26.2858C26.4448 47.6667 26.6028 47.6926 26.7535 47.7435L28.8312 48.4454C29.1993 48.5698 29.5066 48.8289 29.6913 49.1707C29.8461 49.4569 29.9059 49.7848 29.8624 50.1073L29.4039 53.5V54.2067C29.4039 54.3829 29.4272 54.5584 29.4732 54.7285L29.8906 56.273C29.9165 56.3687 29.9494 56.4622 29.9891 56.553L30.7803 58.3611L31.5624 61.0421C31.6081 61.1986 31.6727 61.349 31.7549 61.4899L33.3329 64.1944L34.4868 66.5608C34.822 67.2481 35.5198 67.6842 36.2845 67.6842H36.8147C37.3118 67.6842 37.7911 67.499 38.1592 67.1648L39.1268 66.2862C39.2346 66.1883 39.3527 66.1024 39.4792 66.0302L42.4007 64.3611C42.5938 64.2508 42.7672 64.109 42.9136 63.9417L44.3941 62.25L44.9934 61.5653C45.1556 61.38 45.245 61.142 45.245 60.8957C45.245 60.5308 45.0495 60.1938 44.7326 60.0128L43.5433 59.3333L42.3026 58.6245C42.0005 58.4519 41.6586 58.3611 41.3106 58.3611H40.1398C39.8029 58.3611 39.591 58.2023 39.463 58.0026C39.2382 57.6521 39.1378 57.2162 38.8635 56.9028C38.5893 56.5894 38.4381 56.1873 38.4381 55.7709V54.4722C38.4381 53.6944 37.8708 53.5 37.5872 53.5H39.2889C39.395 53.5 39.4887 53.5157 39.5713 53.5435C40.2515 53.7726 40.5245 54.692 41.1477 55.048L41.8415 55.4444L43.5433 56.4167L44.7839 57.1255C45.0861 57.2981 45.428 57.3889 45.776 57.3889H46.0959H46.4157C46.7637 57.3889 47.1057 57.4797 47.4078 57.6523L48.1874 58.0977C48.4895 58.2703 48.8315 58.3611 49.1795 58.3611H49.6435C50.0926 58.3611 50.5198 58.5549 50.8156 58.8929C51.0641 59.1768 51.1612 59.5649 51.344 59.895C51.4678 60.1184 51.6862 60.3056 52.0519 60.3056C52.3961 60.3056 52.4647 60.4713 52.4118 60.677C52.3433 60.9434 52.4825 61.2778 52.7575 61.2778C52.8498 61.2778 52.9377 61.3176 52.9985 61.3871L53.7537 62.25L54.1095 62.6566C54.4286 63.0212 54.6045 63.4893 54.6045 63.9738V65.1667V67.3317C54.6045 67.8163 54.7804 68.2843 55.0995 68.6489L56.3063 70.0278L56.8769 70.6799C57.055 70.8833 57.3122 71 57.5826 71C57.8529 71 58.1101 70.8833 58.2882 70.6799L58.4734 70.4682C58.7219 70.1843 58.8589 69.8198 58.8589 69.4425V68.5018C58.8589 68.2258 58.916 67.9528 59.0266 67.7L59.5859 66.4219C59.668 66.2343 59.7783 66.0605 59.9131 65.9065L60.5606 65.1667L62.0411 63.475C62.1875 63.3077 62.3623 63.1685 62.5474 63.0452C63.1419 62.649 63.964 61.9399 63.964 61.2778C63.964 61.0237 64.0246 60.9011 64.1159 60.8624C64.6138 60.6514 65.1251 61.2778 65.6658 61.2778C66.2065 61.2778 66.7369 61.5042 66.9954 61.9792C67.1965 62.3487 67.3675 62.7952 67.3675 63.2222C67.3675 63.5727 67.4827 63.8047 67.6352 63.9539C67.9287 64.2409 68.3734 64.3716 68.6438 64.6806L68.8837 64.9546C69.0016 65.0894 69.172 65.1667 69.351 65.1667C69.673 65.1667 69.9434 64.9011 69.9712 64.5803C72.4382 36.1435 69.9086 46.5892 68.2184 31.1389C66.8908 19.0033 57.9032 11.4289 53.2495 8.95661C53.0202 8.83478 52.8164 8.67629 52.6385 8.48716C51.9973 7.80566 50.9397 6.83333 50.3502 6.83333C49.7827 6.83333 49.1758 5.93229 48.8252 5.25704C48.7048 5.02498 48.5108 4.83646 48.2665 4.7434L47.5363 4.46528C47.0006 4.26125 46.484 4.80357 46.7138 5.32874C46.8463 5.6315 46.7296 5.98609 46.4344 6.13464C45.7935 6.45712 44.9127 6.83333 44.3941 6.83333C43.5946 6.83333 42.8951 5.86111 42.0956 5.86111H40.9907C40.1398 5.86111 40.1398 6.83333 39.2889 7.80556C38.4381 8.77778 37.5872 8.77778 37.5872 9.75C37.5872 10.7222 35.8855 9.75 35.0346 10.7222C34.1838 11.6944 34.1838 10.7222 34.1838 11.6944C34.1838 12.3215 33.8151 12.9906 33.5236 13.3963C33.4041 13.5625 33.2931 13.7351 33.2014 13.9182C32.8598 14.6002 32.224 15.5833 31.6312 15.5833H31.3111C30.9631 15.5833 30.6176 15.4978 30.3346 15.2953C29.7631 14.8863 29.0786 14.2431 29.0786 13.6389C29.0786 12.6667 28.2277 12.6667 27.3768 11.6944C27.2143 11.5087 27.1132 11.3192 27.0573 11.134C26.8088 10.31 27.9141 10.0569 28.6614 10.4839C28.9348 10.6401 29.2441 10.7222 29.5589 10.7222H30.7803C31.7201 10.7222 32.482 9.96033 32.482 9.02049V8.77778V8.55682C32.482 8.07231 32.3061 7.60458 31.987 7.23998L31.8524 7.08611C31.7059 6.91876 31.5326 6.77702 31.3395 6.6667L29.9294 5.86111L28.5004 5.04471C28.3217 4.9426 28.1194 4.88889 27.9136 4.88889C27.5725 4.88889 27.248 4.74166 27.0233 4.48498L26.7294 4.14909C26.5946 3.99505 26.4842 3.82123 26.4021 3.63371L25.9405 2.57865C25.7682 2.18487 25.4736 1.85708 25.1003 1.64385L24.7941 1.46888C24.2745 1.17203 23.6493 1.12344 23.0901 1.33643L21.886 1.79501C21.5805 1.91138 21.3134 2.10718 21.0642 2.31884C20.7068 2.62241 20.1988 2.94444 19.719 2.94444C18.8682 2.94444 18.8682 4.88889 18.0173 5.86111C17.1664 6.83333 18.0173 6.83333 17.1664 6.83333C16.7216 6.83333 16.7371 7.38703 16.8804 7.95161C17.0176 8.49238 17.0393 9.06843 16.8156 9.57955L16.4394 10.4393C16.3573 10.6268 16.2444 10.7986 16.1249 10.9648C15.8334 11.3705 15.4647 12.0396 15.4647 12.6667C15.4647 13.4444 14.8975 14.287 14.6138 14.6111L13.1333 16.3028C12.9869 16.4701 12.8145 16.6129 12.6178 16.7167C11.9741 17.0565 10.9399 17.5278 10.3595 17.5278C9.7979 17.5278 9.96996 18.4102 10.2066 19.083C10.2982 19.3433 10.3595 19.6147 10.3595 19.8907V21.4167V22.7758C10.3595 23.1531 10.4965 23.5176 10.745 23.8016C11.0407 24.1395 11.468 24.3333 11.917 24.3333H12.5449C12.7783 24.3333 13.0003 24.2326 13.1539 24.057C13.4764 23.6886 14.0496 23.6886 14.372 24.057L14.5125 24.2176C14.5797 24.2943 14.6346 24.3809 14.6755 24.4743L15.4185 26.1721C15.4491 26.2421 15.4903 26.3071 15.5407 26.3646C15.9012 26.7766 16.5678 26.6736 16.7873 26.1721L17.0905 25.4792C17.1408 25.3641 17.2085 25.2575 17.2913 25.1629L18.2729 24.0413C18.6137 23.6519 18.6137 23.0704 18.2729 22.6809C18.1081 22.4927 18.0173 22.251 18.0173 22.0008V20.4444V19.2516C18.0173 18.7671 18.1932 18.299 18.5123 17.9344L18.6648 17.7602C18.7996 17.6062 18.9099 17.4323 18.992 17.2448L19.5952 15.8663C19.6773 15.6788 19.7876 15.5049 19.9225 15.3509L20.35 14.8624C20.4956 14.696 20.6679 14.5551 20.8599 14.4454L21.503 14.078C21.9502 13.8225 22.5154 13.9175 22.8546 14.305C23.0273 14.5023 23.1225 14.7557 23.1225 15.0179V15.1765C23.1225 15.4429 23.0518 15.7046 22.9175 15.9347L21.6933 18.0329C21.5148 18.3388 21.4208 18.6866 21.4208 19.0408V20.4444C21.4208 20.9814 21.856 21.4167 22.393 21.4167H22.7655C22.9994 21.4167 23.2294 21.3556 23.4325 21.2396L24.2824 20.754C24.6181 20.5622 25.0303 20.5622 25.3661 20.754C25.9656 21.0965 26.1009 21.9023 25.6462 22.4219L24.8242 23.3611C24.5255 23.7025 23.4111 24.0036 23.1124 24.3449L22.365 25.1989C22.3031 25.2696 22.2525 25.3493 22.2148 25.4354L21.5446 26.967C21.4625 27.1546 21.3496 27.3264 21.2301 27.4926C20.9386 27.8982 20.5699 28.5674 20.5699 29.1944C20.5699 29.5449 20.4547 29.777 20.3022 29.9261C20.0087 30.2132 19.564 29.9895 19.2936 29.6806C19.0232 29.3716 18.6327 29.1944 18.2222 29.1944H18.0173H16.3156H15.9218C15.1272 29.1944 14.408 28.7241 14.0895 27.9962L13.8304 27.4041C13.7859 27.3025 13.763 27.1927 13.763 27.0818C13.763 26.6377 13.403 26.2778 12.959 26.2778H12.9121C12.4422 26.2778 12.0613 26.6587 12.0613 27.1286V28.2222V28.4429C12.0613 28.9274 11.8854 29.3954 11.5663 29.76L11.2104 30.1667L10.3595 31.1389C10.0759 31.463 9.33848 32.1111 8.65779 32.1111C7.9771 32.1111 7.80692 32.7593 7.80692 33.0833C7.80692 33.7315 7.46658 35.0278 6.10519 35.0278C5.16962 35.0278 4.71626 35.64 4.52418 36.2333C4.37495 36.6943 4.57935 37.1732 4.89844 37.5378L5.61022 38.3511C5.92931 38.7157 6.11604 39.1925 5.95907 39.6509C5.83477 40.0139 5.61702 40.4467 5.25433 40.8611L5.00074 41.1509C4.62096 41.5848 4.0727 41.8333 3.49605 41.8333Z" stroke="#333333"/>
</svg>
