<svg width="72" height="72" viewBox="0 0 72 72" fill="none" xmlns="http://www.w3.org/2000/svg">
<path d="M47.6711 44.167L48.7541 48.083L48.3011 52.333L46.6011 56.667L50.2961 58.875C50.2961 58.875 53.8791 59.026 55.4631 58.201L53.3971 56.424L55.4631 53.292L55.1291 48.833L53.9631 46.042L51.0321 44.5L47.6711 44.167Z" fill="#DBDBDB"/>
<path d="M21.2022 46.717C22.4862 49.017 21.8722 50.885 20.8952 51.812C19.8372 52.815 17.7712 53.264 16.3612 52.892C3.71624 49.559 12.4142 27.735 12.4142 27.735C13.0292 18.507 20.4992 18.859 20.4992 18.859C20.4992 18.859 27.4092 14.289 31.5172 19.025C32.7472 20.442 33.2932 22.325 33.2372 24.2C33.1502 27.128 36.1192 31.158 31.5852 34.559C29.8352 35.871 30.6382 39.667 27.0852 40.142C27.0852 40.142 21.9932 40.662 21.9052 32.664" stroke="#333333" stroke-width="2" stroke-miterlimit="10" stroke-linecap="round" stroke-linejoin="round"/>
<path d="M25.3151 40.546C25.3151 40.546 25.0041 42.998 26.4101 53.016L24.9001 55.614C24.3901 56.489 24.9631 57.601 25.9701 57.685C27.1961 57.787 29.9201 57.863 31.2321 57.698C32.2441 57.572 33.0581 56.668 32.9351 55.657C32.0801 48.611 33.5561 44.627 33.5561 44.627C38.2171 48.2 44.7791 44.823 48.4711 44.471C49.2091 44.401 50.5091 44.638 51.1231 44.815C53.4361 45.479 54.9761 46.938 54.9181 53.405L53.3641 55.968C52.8741 56.874 53.5211 58.005 54.5291 58.22C55.6291 58.455 58.6891 58.168 59.5981 57.968C61.3281 57.586 61.2481 55.759 61.3551 53.991C61.5831 50.221 61.2581 44.977 61.0501 42.247C60.973 41.2556 61.0072 40.2587 61.1521 39.275C61.5221 36.775 64.3421 26.727 52.9801 20.066C46.4061 16.212 39.7881 24.308 32.3561 19.516" stroke="#333333" stroke-width="2" stroke-miterlimit="10" stroke-linecap="round" stroke-linejoin="round"/>
<path d="M18.1261 35.908C18.1261 35.908 18.3021 46.718 5.11914 47.068" stroke="#333333" stroke-width="2" stroke-miterlimit="10" stroke-linecap="round" stroke-linejoin="round"/>
<path d="M64.1343 29.81C65.1843 32.224 65.9023 36.055 65.3373 42.11" stroke="#333333" stroke-width="2" stroke-miterlimit="10" stroke-linecap="round" stroke-linejoin="round"/>
<path d="M47.9602 45.424L48.3602 50.275C48.4252 51.045 48.2322 51.815 47.8152 52.459L46.9322 53.821C46.7192 54.151 46.5592 54.646 46.4682 55.189C46.2312 56.604 47.3152 57.892 48.7112 57.892H49.8342" stroke="#333333" stroke-width="2" stroke-miterlimit="10" stroke-linecap="round" stroke-linejoin="round"/>
</svg>
