<svg width="70" height="70" viewBox="0 0 70 70" fill="none" xmlns="http://www.w3.org/2000/svg">
<g clip-path="url(#clip0)">
<path d="M12.6392 23.3333H18.9856C19.7502 23.3333 20.5045 23.4973 21.2001 23.813L22.1289 24.235C23.5187 24.868 25.0569 25.1047 26.5732 24.9191C32.1287 24.233 45.6866 23.9142 50.8031 26.2407C57.8319 29.4366 57.3777 33.7051 58.2537 36.0013C59.1308 38.2985 61.2541 45.1153 68.0558 44.7044" stroke="#333333" stroke-width="2" stroke-miterlimit="10" stroke-linecap="round" stroke-linejoin="round"/>
<path d="M17.5005 33.5786C17.8948 35.7565 18.8772 38.3172 20.9234 41.1231V52.4185C20.9234 52.9558 21.1226 53.4711 21.4773 53.851C21.832 54.231 22.313 54.4444 22.8145 54.4444H22.9942C23.4878 54.4454 23.9621 54.2391 24.3154 53.8699C24.6687 53.5006 24.873 52.9978 24.8843 52.4692C24.9694 48.4498 26.2819 37.0642 27.2227 35.4161C27.2227 35.4161 26.6204 32.8199 26.0408 31.1111" stroke="#333333" stroke-width="2" stroke-miterlimit="10" stroke-linecap="round" stroke-linejoin="round"/>
<path d="M11.1754 34.0278C11.5591 34.6743 12.7028 35.5134 13.4693 35.9045C13.8733 36.1113 14.1638 36.5196 14.2791 36.9929L15.4256 41.6919C15.4256 41.6919 8.6435 45.718 11.3202 52.8146C11.5941 53.5422 12.32 54.2596 13.2811 54.4228C14.2865 54.5951 16.0491 53.7438 15.4256 51.7171" stroke="#333333" stroke-width="2" stroke-miterlimit="10" stroke-linecap="round" stroke-linejoin="round"/>
<path d="M26.2505 39.5941C26.2505 39.5941 33.9576 42.5046 40.5526 36.6847C40.5526 36.6847 40.6576 38.4065 46.9578 42.6921C46.9578 42.6921 50.7808 45.5542 54.7374 47.3451L55.2991 52.928C55.3909 53.8462 56.5021 54.4444 57.4542 54.4444C58.5328 54.4444 59.3831 53.5549 59.3005 52.5134L58.6735 44.6163C58.6307 44.0713 58.225 43.6735 57.702 43.4662C56.3532 42.932 54.2185 39.3532 52.8269 36.3293L52.4028 33.0555" stroke="#333333" stroke-width="2" stroke-miterlimit="10" stroke-linecap="round" stroke-linejoin="round"/>
<path d="M37.917 38.8889C37.917 38.8889 39.2366 42.9304 44.0367 47.259L43.1856 51.2496C43.1285 51.5175 43.1317 51.7948 43.1951 52.0613C43.2585 52.3278 43.3804 52.5767 43.552 52.7897C43.7236 53.0028 43.9405 53.1747 44.1869 53.2927C44.4332 53.4108 44.7027 53.4721 44.9757 53.4722V53.4722C45.6931 53.4722 46.3422 53.0549 46.6398 52.3996C47.2323 51.0949 47.9546 48.9506 48.6114 47.9525" stroke="#333333" stroke-width="2" stroke-miterlimit="10" stroke-linecap="round" stroke-linejoin="round"/>
<path d="M12.1722 24.8482C13.874 22.1671 10.5293 20.3652 8.49006 22.0305C6.99031 23.2557 6.15559 23.2169 6.15559 23.2169C2.40672 24.2531 2.67057 27.0165 2.67057 27.0165L1.00408 31.5179C0.958809 31.6771 0.962527 31.846 1.01476 32.0031C1.06699 32.1602 1.16537 32.2983 1.29736 32.4L2.93541 33.662C3.18061 33.8505 3.47206 33.9714 3.78001 34.0123C4.08795 34.0532 4.40135 34.0126 4.68822 33.8946C6.33607 33.2258 9.92605 31.2921 9.92605 28.421" stroke="#333333" stroke-width="2" stroke-miterlimit="10" stroke-linecap="round" stroke-linejoin="round"/>
<path d="M21.3894 43.7499C21.3894 43.7499 18.0747 44.9906 16.5283 46.6666" stroke="#333333" stroke-width="2" stroke-miterlimit="10" stroke-linecap="round" stroke-linejoin="round"/>
<path d="M47.8843 34.0278C47.6916 34.028 47.5017 33.9734 47.3301 33.8683C47.1585 33.7632 47.0101 33.6107 46.8973 33.4234C46.7845 33.2361 46.7104 33.0193 46.6811 32.791C46.6518 32.5626 46.6682 32.3291 46.729 32.1098C46.7897 31.8905 46.893 31.6916 47.0304 31.5296C47.1677 31.3676 47.3353 31.247 47.5191 31.1779C47.7029 31.1088 47.8979 31.093 48.0878 31.1319C48.2777 31.1708 48.4572 31.2633 48.6114 31.4018" stroke="#333333" stroke-width="2" stroke-miterlimit="10" stroke-linecap="round" stroke-linejoin="round"/>
<path d="M30.9917 31.1111C30.7027 31.1109 30.4179 31.056 30.1606 30.9507C29.9034 30.8455 29.6811 30.693 29.512 30.5058C29.3429 30.3186 29.2319 30.102 29.1881 29.8739C29.1443 29.6457 29.1689 29.4125 29.2599 29.1934C29.351 28.9743 29.5058 28.7756 29.7117 28.6137C29.9177 28.4517 30.1688 28.3311 30.4444 28.2618C30.7201 28.1924 31.0125 28.1763 31.2974 28.2148C31.5824 28.2533 31.8519 28.3453 32.0837 28.4831" stroke="#333333" stroke-width="2" stroke-miterlimit="10" stroke-linecap="round" stroke-linejoin="round"/>
<path d="M39.6338 31.1111C39.389 31.0034 39.194 30.8651 39.065 30.7076C38.9359 30.5502 38.8764 30.3781 38.8914 30.2055C38.9064 30.0328 38.9955 29.8647 39.1513 29.7148C39.3071 29.5649 39.5252 29.4375 39.7875 29.3433C40.0499 29.249 40.3491 29.1905 40.6605 29.1725C40.9719 29.1546 41.2865 29.1777 41.5785 29.24C41.8705 29.3023 42.1315 29.402 42.3401 29.5309C42.5486 29.6598 42.6987 29.8142 42.778 29.9814" stroke="#333333" stroke-width="2" stroke-miterlimit="10" stroke-linecap="round" stroke-linejoin="round"/>
<path d="M16.1146 30.1388C15.931 30.085 15.7848 30.0159 15.688 29.9371C15.5912 29.8584 15.5466 29.7724 15.5579 29.686C15.5691 29.5997 15.6359 29.5156 15.7528 29.4407C15.8696 29.3658 16.0332 29.3021 16.2299 29.255C16.4267 29.2078 16.6511 29.1786 16.8846 29.1696C17.1182 29.1606 17.3542 29.1722 17.5732 29.2033C17.7922 29.2345 17.9879 29.2843 18.1443 29.3488C18.3008 29.4132 18.4133 29.4904 18.4728 29.574" stroke="#333333" stroke-width="2" stroke-miterlimit="10" stroke-linecap="round" stroke-linejoin="round"/>
<path d="M33.0562 34.5353C33.2288 34.359 33.4463 34.2215 33.6906 34.1343C33.9348 34.0471 34.199 34.0127 34.4612 34.0338C34.7234 34.055 34.9762 34.1311 35.1988 34.2559C35.4214 34.3808 35.6073 34.5508 35.7413 34.7519C35.8754 34.953 35.9537 35.1795 35.9697 35.4127C35.9858 35.646 35.9392 35.8792 35.8338 36.0933C35.7283 36.3075 35.5671 36.4963 35.3633 36.6442C35.1595 36.7922 34.9191 36.8951 34.6617 36.9444" stroke="#333333" stroke-width="2" stroke-miterlimit="10" stroke-linecap="round" stroke-linejoin="round"/>
<path d="M21.3892 33.5631C21.5619 33.3867 21.7793 33.2493 22.0236 33.1621C22.2679 33.0749 22.532 33.0404 22.7942 33.0616C23.0564 33.0827 23.3092 33.1589 23.5318 33.2837C23.7544 33.4086 23.9403 33.5785 24.0744 33.7797C24.2084 33.9808 24.2867 34.2073 24.3027 34.4405C24.3188 34.6737 24.2722 34.907 24.1668 35.1211C24.0613 35.3352 23.9001 35.524 23.6963 35.672C23.4925 35.82 23.2521 35.9229 22.9947 35.9722" stroke="#333333" stroke-width="2" stroke-miterlimit="10" stroke-linecap="round" stroke-linejoin="round"/>
</g>
<defs>
<clipPath id="clip0">
<rect width="70" height="70" fill="white"/>
</clipPath>
</defs>
</svg>
