<svg width="70" height="70" viewBox="0 0 70 70" fill="none" xmlns="http://www.w3.org/2000/svg">
<path d="M23.5763 30.1389L28.802 30.582L30.1388 33.5725L28.5589 36.3414L28.0728 38.7782L22.2395 38.8889L21.1457 36.0092L19.4443 32.5756L20.9027 30.582L23.5763 30.1389V30.1389Z" fill="#F4F4F4"/>
<path d="M57.5759 12.2537C50.5246 0.766759 41.7672 5.77095 40.9711 9.41037C40.2887 12.5949 41.5398 16.4617 51.5481 19.1913C53.0372 19.5257 54.4417 20.1627 55.6743 21.0627C56.9068 21.9626 57.9412 23.1064 58.7132 24.4229C58.9281 24.7949 59.0662 25.2062 59.1196 25.6324C59.1729 26.0587 59.1403 26.4913 59.0236 26.9047C58.907 27.3181 58.7088 27.704 58.4406 28.0396C58.1724 28.3751 57.8397 28.6536 57.4622 28.8585C57.0716 29.0914 56.6334 29.2329 56.1804 29.2723C55.7273 29.3117 55.2713 29.248 54.8464 29.0859C49.501 27.2662 44.1556 23.3994 37.7866 28.0624" stroke="#333333" stroke-width="2" stroke-linecap="round" stroke-linejoin="round"/>
<path d="M34.1466 34.6588C39.8332 35 37.3311 23.6268 37.3311 23.6268C36.7625 22.717 34.7153 21.5797 32.0995 24.9916C31.8534 24.1262 31.3825 23.3413 30.7347 22.717C29.7854 21.833 28.5481 21.3229 27.2516 21.2811C25.9552 21.2393 24.6876 21.6686 23.6833 22.4895C22.306 23.4194 21.2356 24.7372 20.608 26.276C19.9803 27.8147 19.8236 29.5052 20.1576 31.1331" stroke="#333333" stroke-width="2" stroke-linecap="round" stroke-linejoin="round"/>
<path d="M21.4093 35.6824C21.4093 35.6824 17.9974 31.3606 22.3192 30.4508C26.641 29.5409 28.347 30.4508 28.347 30.4508C28.347 30.4508 31.7589 31.3606 28.347 35.6824C28.347 35.6824 29.598 39.5493 25.2762 39.5493C24.8202 39.6047 24.3577 39.5689 23.9156 39.4441C23.4735 39.3193 23.0606 39.1079 22.7009 38.8222C22.3411 38.5366 22.0417 38.1823 21.82 37.78C21.5983 37.3776 21.4587 36.9353 21.4093 36.4785C21.3531 36.3534 21.3241 36.2177 21.3241 36.0805C21.3241 35.9433 21.3531 35.8076 21.4093 35.6824Z" stroke="#333333" stroke-width="2" stroke-linecap="round" stroke-linejoin="round"/>
<path d="M29.484 47.283L25.7308 54.1069C25.7308 54.1069 16.746 56.1541 14.0165 56.8365C11.9693 57.4051 7.87498 58.6562 6.05527 59.3386C5.64424 59.4702 5.21095 59.5178 4.78114 59.4788C4.35132 59.4397 3.93374 59.3147 3.55317 59.1111C2.30213 58.4287 1.39227 55.9266 10.1496 53.1971C17.9971 50.695 23.5699 44.5534 23.9111 39.5493" stroke="#333333" stroke-width="2" stroke-linecap="round" stroke-linejoin="round"/>
<path d="M38.5826 37.1609C38.5826 37.1609 47.5674 46.1457 44.7241 50.24C42.6769 53.3108 39.6062 58.8836 38.0139 61.7269C37.74 62.243 37.3305 62.6746 36.8295 62.9752C36.3285 63.2758 35.7549 63.4341 35.1707 63.4329H29.3703C26.4133 63.4329 26.0721 58.8836 29.0291 58.6562H29.5978C30.8489 58.6562 34.2608 57.9738 34.8295 56.8365L38.3551 48.989C38.3551 48.989 35.0569 44.0985 31.4175 43.4161" stroke="#333333" stroke-width="2" stroke-linecap="round" stroke-linejoin="round"/>
<path d="M60.6463 35.1137C60.6463 35.1137 64.0583 42.7337 50.2967 48.8752C50.3171 53.0902 49.8206 57.2917 48.8182 61.3857C48.6847 61.9213 48.3507 62.3851 47.8851 62.6814C47.4194 62.9777 46.8578 63.0839 46.3161 62.978H42.563" stroke="#333333" stroke-width="2" stroke-linecap="round" stroke-linejoin="round"/>
<path d="M53.4814 54.3344C54.6188 57.7463 60.3053 59.1111 62.58 58.8836V62.0681C62.5871 62.4192 62.6633 62.7655 62.8044 63.0871C62.9455 63.4086 63.1486 63.6992 63.4022 63.9422C63.6557 64.1852 63.9547 64.3758 64.282 64.503C64.6093 64.6303 64.9585 64.6918 65.3095 64.6839H65.4233C65.983 64.6854 66.5261 64.494 66.9612 64.1418C67.3962 63.7896 67.6966 63.2983 67.8116 62.7505C67.9475 59.9216 67.6794 57.0877 67.0155 54.3344C55.9835 52.2872 56.4385 46.1457 56.4385 46.1457" stroke="#333333" stroke-width="2" stroke-linecap="round" stroke-linejoin="round"/>
<path d="M41.7671 58.9974C43.0013 59.0219 44.2063 58.6202 45.179 57.86L44.0417 52.1735" stroke="#333333" stroke-width="2" stroke-linecap="round" stroke-linejoin="round"/>
</svg>
