<svg width="70" height="70" viewBox="0 0 70 70" fill="none" xmlns="http://www.w3.org/2000/svg">
<path d="M60.9417 62.6172L59.0036 61.9325C59.0096 61.7931 58.9986 61.6535 58.9708 61.5169C58.9708 61.5169 56.3436 59.9933 53.2669 60.6342C50.1901 61.2751 47.179 63.07 45.1917 62.429C44.7553 62.288 44.2062 61.9511 43.5533 61.5223C46.1465 60.7064 49.0975 60.3422 49.8697 58.9684C51.0236 56.9176 53.619 56.7722 53.619 56.7722C53.619 56.5687 53.5884 56.3981 53.5414 56.2461L55.6042 55.8709C55.7136 55.8512 55.7726 55.6445 55.7322 55.4115C55.6939 55.1786 55.5736 55.008 55.4631 55.0287L52.9628 55.4936C52.5811 55.2562 52.1775 55.23 52.1775 55.23C48.9586 55.0233 49.7417 58.7125 45.5122 58.7125C43.8453 58.7125 42.8128 59.4737 41.6983 60.3006C40.0281 59.2364 37.9106 58.0814 35.3195 57.5444C40.7161 55.9212 47.5783 54.7225 52.6445 51.7355C64.9645 44.474 72.0761 33.4961 65.0192 21.023C57.9722 8.5564 37.8723 -8.84298 29.9525 11.5981C26.6187 20.2026 23.6558 25.667 21.4125 29.529C22.9076 26.4983 24.9037 21.7514 25.9461 16.2848C14.0701 22.272 14.3873 33.8953 15.1355 38.8456C14.9033 38.9268 14.6796 39.0301 14.4672 39.154L4.55342 44.9947C1.26889 46.9306 1.4242 53.4942 4.89905 59.64C7.65311 64.5072 11.6562 67.6506 14.838 67.7939L14.8237 67.8125C14.8872 67.8125 14.9473 67.8059 15.0108 67.8048C15.1015 67.8059 15.189 67.7994 15.2776 67.795C19.7226 67.6156 22.8617 64.8987 25.5501 64.5783C29.0195 64.1659 37.3594 66.1544 40.2797 63.2362C40.4487 63.0692 40.6309 62.9159 40.8244 62.778C42.6389 64.1156 44.4654 65.0245 47.0172 64.1637C50.8945 62.8545 54.4831 61.8614 58.5847 63.128C58.5847 63.128 58.694 62.9847 58.8001 62.7572L60.642 63.4167C60.747 63.455 60.898 63.3051 60.9822 63.0853C61.0631 62.8633 61.0456 62.6555 60.9417 62.6172V62.6172ZM42.36 6.5078C45.6183 4.58718 56.173 12.3911 60.9319 20.8075C65.694 29.2261 58.1526 30.8645 53.3904 22.4459C48.6326 14.0317 36.994 9.67421 42.36 6.5078V6.5078ZM15.4264 64.2304C13.1919 65.5506 9.32983 62.9934 6.80217 58.52C4.27123 54.0433 4.03498 49.35 6.26842 48.0298C8.50514 46.7162 12.3661 49.2756 14.8981 53.7469C17.4258 58.217 17.6631 62.9136 15.4264 64.2304ZM20.9531 63.2362C21.3337 59.9955 20.3986 55.8709 18.1367 51.8656C15.923 47.95 12.8528 44.9717 9.85373 43.6559L15.2492 40.4775C15.6432 40.2519 16.0914 40.1381 16.5453 40.1483C18.8575 40.1483 22.632 42.6858 25.373 47.5355C28.6444 53.3247 28.4748 58.8011 26.2753 60.095L20.9531 63.2362ZM33.3344 62.0364C30.9172 61.5508 28.5273 61.5748 26.3475 61.8428L30.0334 59.6695C30.6914 59.2906 31.3748 58.9577 32.0787 58.6731C33.7959 58.8394 36.1705 59.2998 37.9062 60.5369C38.4367 60.9164 38.942 61.3134 39.4353 61.7039C38.0528 62.3153 36.2186 62.6172 33.3344 62.0364" fill="#333333"/>
</svg>
