<svg width="70" height="70" viewBox="0 0 70 70" fill="none" xmlns="http://www.w3.org/2000/svg">
<path d="M58.9258 9.80219L58.7595 9.62062L58.5266 9.50359C44.9509 2.68953 41.9606 2.35375 35.922 2.19734C35.3078 2.18422 34.6933 2.18422 34.0791 2.19734C28.0394 2.35375 25.0469 2.68844 11.4734 9.50359L11.2405 9.62062L11.0742 9.80219C10.71 10.2047 2.1875 20.0758 2.1875 57.6844L2.19625 59.3502L4.05891 58.8055C4.095 58.7945 7.6825 57.7817 14.4725 58.6414C13.7252 60.8041 12.8249 62.9109 11.7786 64.9458L11.1978 66.0822L12.5606 66.5306C12.9434 66.6542 21.9067 69.4892 34.1644 65.1142C39.807 67.1956 44.7223 67.8125 48.5691 67.8125C53.9777 67.8125 57.2764 66.593 57.5094 66.5055L58.7716 66.0231L58.2203 64.9469C57.174 62.912 56.2737 60.8052 55.5264 58.6425C62.3175 57.7839 65.9039 58.7967 65.9345 58.8044L67.8125 59.3742V57.6844C67.8125 20.0758 59.2889 10.2047 58.9258 9.80219V9.80219ZM34.1666 4.57516C34.5833 4.56422 35.4189 4.56422 35.8323 4.57516C37.8919 4.62875 39.5227 4.6725 41.522 5.09469C39.8502 11.3303 38.0194 17.5222 36.0314 23.6644C31.6663 16.4423 29.3256 7.36203 28.7722 5.03453C30.6392 4.66703 32.2077 4.62547 34.1666 4.57516V4.57516ZM5.00063 56.1892C5.01484 54.0214 5.05859 51.9553 5.1275 49.9767C8.9075 47.8942 14.0667 47.9489 14.0667 47.9489C10.1019 46.9667 6.94203 47.2697 5.22266 47.5967C6.44547 21.4889 12.2358 12.6787 13.1753 11.4144C16.298 9.85031 18.8147 8.65484 20.9158 7.73391C21.8498 10.0559 24.2659 15.4788 28.8127 22.2152C28.8127 22.2152 24.8708 12.3769 23.5812 6.62266C24.4967 6.26609 25.3203 5.97297 26.075 5.73344C26.8013 8.77734 29.5838 19.2806 34.9497 26.9183C33.0772 32.4537 30.9641 38.0887 28.817 42.6562C24.9703 42.8203 22.132 43.143 20.4903 43.3716C20.5844 39.9405 20.3919 36.8244 19.9708 34.4608C18.7228 27.4498 19.9708 22.1309 19.9708 22.1309C18.7447 24.0789 18.5095 25.4352 18.5095 25.4352L16.2236 22.5892C18.5052 27.6773 16.2509 27.2398 17.8511 35.0602C17.9747 35.6639 18.0644 36.2994 18.1289 36.96C16.2258 36.7511 12.9084 36.6548 10.3228 37.998C10.3228 37.998 14.6442 37.1438 18.2372 38.9769C18.2919 42.4014 17.7548 46.27 17.0122 49.91C13.428 49.7678 10.0844 51.0234 10.0844 51.0234C12.2896 50.7922 14.5187 51.043 16.6173 51.7584C16.2663 53.3052 15.8801 54.8438 15.4591 56.373C10.5022 55.6894 6.97484 55.907 5.00063 56.1892V56.1892ZM15.7238 64.773C18.3739 59.7614 19.7969 53.0425 20.2956 46.8245C22.7631 47.098 25.1475 47.2883 27.4269 47.4163C25.3761 49.2636 22.6384 52.4256 19.9719 57.6614C19.9719 57.6614 22.4503 58.4391 24.7909 59.1314C24.7909 59.1314 26.5486 55.7627 29.4536 51.9684C30.2936 56.2789 31.7997 61.0619 32.4822 63.128C24.9419 65.683 18.8038 65.2728 15.7238 64.773V64.773ZM35.3413 62.953C34.6872 60.9941 32.4341 54.0148 31.8238 49.1312C32.6025 49.7405 33.2653 50.12 33.5278 49.9002C33.8242 49.6464 34.8731 48.86 35.9778 47.9664C40.2511 52.7286 42.9636 57.9403 42.9636 57.9403C45.3053 57.248 47.7827 56.4703 47.7827 56.4703C45.6378 52.2572 43.4503 49.3992 41.6073 47.472C45.675 47.2773 48.603 46.947 49.9559 46.7731C50.4536 53.0217 51.8831 59.7833 54.5552 64.8134C51.4106 65.4839 44.3866 66.2703 35.3413 62.953V62.953ZM54.7859 56.3391C54.4 54.9331 54.043 53.5193 53.7152 52.0986C54.8023 51.6327 57.6056 50.6439 61.1384 51.0245C61.1384 51.0245 57.178 49.5403 53.2558 49.9887C52.5492 46.5281 52.0231 42.8564 52.0144 39.5511C55.7419 36.9753 60.8967 38.0002 60.8967 38.0002C57.7817 36.3814 53.5905 36.8528 52.1106 37.0902C52.1752 36.3847 52.2703 35.7066 52.4016 35.0623C54.0017 27.242 51.7475 27.6795 54.0291 22.5914L51.7431 25.4373C51.7431 25.4373 51.508 24.0811 50.2819 22.1331C50.2819 22.1331 51.532 27.452 50.2819 34.463C49.8564 36.8583 49.6661 40.0258 49.7689 43.5105C45.4098 42.9911 41.0283 42.6808 36.6395 42.5808C35.4123 41.5855 34.0834 40.6842 33.5377 41.0211C33.5377 41.0211 32.9427 41.4083 32.1453 41.9584C37.8109 29.2644 43.0555 10.1358 44.2072 5.82641C44.9652 6.07469 45.792 6.37547 46.7108 6.73969C45.395 12.5081 41.5045 22.2163 41.5045 22.2163C45.9802 15.5838 48.3875 10.232 49.3533 7.85203C51.3997 8.75656 53.8355 9.91703 56.8236 11.4133C57.7762 12.6984 63.5272 21.4845 64.7708 47.4119C62.953 47.203 60.3105 47.168 57.155 47.95C57.155 47.95 61.2762 47.9117 64.8517 49.3916C64.9327 51.5473 64.9863 53.8027 65.0016 56.1892C63.0591 55.9114 59.6138 55.6959 54.7859 56.3391" fill="#333333"/>
</svg>
