<svg width="70" height="70" viewBox="0 0 70 70" fill="none" xmlns="http://www.w3.org/2000/svg">
<path d="M27.6658 13.0786C28.0362 12.7385 28.327 12.3207 28.5175 11.8553C28.7079 11.3898 28.7932 10.888 28.7674 10.3858C28.7674 9.41189 28.3805 8.4779 27.6919 7.78926C27.0032 7.10062 26.0692 6.71375 25.0954 6.71375C24.1215 6.71375 23.1875 7.10062 22.4989 7.78926C21.8102 8.4779 21.4233 9.41189 21.4233 10.3858" stroke="#333333" stroke-width="2" stroke-miterlimit="10" stroke-linecap="round"/>
<path d="M37.9302 20.8633L45.7479 29.615C46.1643 30.1557 46.4275 30.7987 46.5098 31.4762C46.592 32.1538 46.4904 32.841 46.2155 33.4657L41.4296 42.0998C40.7899 43.4672 40.3576 44.9222 40.1469 46.4169L39.0967 59.2519C39.0457 59.5216 39.0515 59.7989 39.1137 60.0662C39.1758 60.3336 39.2929 60.585 39.4576 60.8046C39.6222 61.0242 39.8308 61.207 40.07 61.3416C40.3092 61.4761 40.5738 61.5594 40.847 61.5861C41.4438 61.5051 42.0042 61.2524 42.46 60.8586C42.9157 60.4648 43.2471 59.9469 43.4137 59.3682L45.6304 49.9176C46.0603 48.4395 46.6882 47.0265 47.497 45.7168L50.6476 41.3997C51.5741 40.1628 52.6303 39.0286 53.7982 38.0166L57.1814 35.2148C58.2194 34.1913 58.8427 32.8203 58.9317 31.3653C58.8536 29.8814 58.324 28.4567 57.4139 27.282L48.4297 17.3639" stroke="#333333" stroke-width="2" stroke-linecap="round" stroke-linejoin="round"/>
<path d="M58.9332 32.5318L59.8672 43.0338C60.0657 44.5712 60.3774 46.0919 60.7998 47.5834L64.1842 57.1515C64.6506 58.318 64.1842 59.3682 63.2503 59.3682C62.6518 59.262 62.0825 59.0305 61.5798 58.6888C61.0771 58.347 60.6524 57.9028 60.3335 57.3853L55.4326 48.5173C54.7549 47.1447 54.2457 45.6951 53.916 44.2002L53.0996 39.5331" stroke="#333333" stroke-width="2" stroke-linecap="round" stroke-linejoin="round"/>
<path d="M48.4311 17.3626C46.0981 15.0285 43.4151 14.3295 41.4298 15.0285C37.6447 16.2559 33.7297 17.0392 29.7637 17.3626C26.3916 17.066 23.164 15.8557 20.4282 13.862" stroke="#333333" stroke-width="2" stroke-linecap="round" stroke-linejoin="round"/>
<path d="M20.7785 24.5965L16.2289 29.7312C15.8076 30.2908 15.5157 30.9369 15.3743 31.6229C15.2329 32.3089 15.2455 33.0177 15.4113 33.6983L18.5619 43.2663C18.9923 44.7436 19.1893 46.2791 19.1457 47.8172L18.5619 59.4857C18.5507 60.0621 18.3322 60.6152 17.9465 61.0436C17.5607 61.4721 17.0335 61.7472 16.4615 61.8186C15.8813 61.7668 15.3422 61.4973 14.9526 61.0643C14.563 60.6313 14.3516 60.0669 14.3611 59.4844L13.6609 48.9837C13.507 47.4539 13.1134 45.9578 12.4944 44.5503L11.0942 41.6323C10.3609 40.2841 9.41524 39.0629 8.29365 38.0153L4.91049 35.2148C3.87248 34.1913 3.24915 32.8204 3.16016 31.3653C3.23808 29.8809 3.76764 28.4558 4.67793 27.2808L13.6622 17.3626" stroke="#333333" stroke-width="2" stroke-linecap="round" stroke-linejoin="round"/>
<path d="M4.09268 34.866V44.2003C4.0534 45.7653 3.89793 47.3253 3.62756 48.8674L2.10979 57.0352C1.87723 58.318 2.45986 59.3682 3.39377 59.3682C3.96873 59.2653 4.50322 59.003 4.93627 58.6111C5.36933 58.2191 5.68352 57.7134 5.84302 57.1515L8.06092 49.9176C8.41098 48.6336 8.87733 46.6495 9.11112 45.3667L9.92753 40.6996" stroke="#333333" stroke-width="2" stroke-linecap="round" stroke-linejoin="round"/>
<path d="M17.045 14.7959C15.7375 15.3848 14.5804 16.2624 13.6606 17.3626" stroke="#333333" stroke-width="2" stroke-linecap="round" stroke-linejoin="round"/>
<path d="M19.3784 18.5303C19.3784 18.5303 25.0958 23.1975 27.4299 23.1975C28.5964 23.1975 30.9306 23.1975 32.0971 17.3626" stroke="#333333" stroke-width="2" stroke-miterlimit="10" stroke-linecap="round"/>
<path d="M36.7638 11.8166C38.7918 11.8166 40.4358 10.1726 40.4358 8.14462C40.4358 6.11662 38.7918 4.4726 36.7638 4.4726C34.7358 4.4726 33.0918 6.11662 33.0918 8.14462C33.0918 10.1726 34.7358 11.8166 36.7638 11.8166Z" stroke="#333333" stroke-width="2" stroke-miterlimit="10"/>
</svg>
