<svg width="70" height="70" viewBox="0 0 70 70" fill="none" xmlns="http://www.w3.org/2000/svg">
<path d="M17.4998 35H11.6665C11.6665 46.8767 20.5944 56.6883 32.0832 58.1321V64.1667H37.9165V58.1321C49.4053 56.6883 58.3332 46.8796 58.3332 35H52.4998C52.4998 44.6513 44.6511 52.5 34.9998 52.5C25.3486 52.5 17.4998 44.6513 17.4998 35Z" fill="#333333"/>
<path d="M23.3335 35C23.3335 41.4342 28.566 46.6667 35.0002 46.6667C41.4343 46.6667 46.6668 41.4342 46.6668 35H40.8335V29.1667H46.6668V23.3333H40.8335V17.5H46.6668C46.6668 11.0338 41.4606 5.77209 35.0614 5.77209C34.8561 5.77333 34.6516 5.79779 34.4518 5.84501C31.4571 5.9902 28.6329 7.28104 26.5633 9.45045C24.4938 11.6199 23.3375 14.5018 23.3335 17.5H35.0002V23.3333H23.3335V29.1667H35.0002V35H23.3335Z" fill="#333333"/>
</svg>
