<svg width="70" height="70" viewBox="0 0 70 70" fill="none" xmlns="http://www.w3.org/2000/svg">
<path d="M49.095 57.9195C47.018 57.9195 44.1338 60.7184 42.048 60.7184C39.5214 60.7184 37.1699 57.9195 35.001 57.9195C32.8321 57.9195 30.4783 60.7184 27.955 60.7184C25.8704 60.7184 22.9861 57.9195 20.908 57.9195C18.8944 57.9195 15.3463 59.5678 14.2197 60.118C14.2219 60.5741 14.2613 61.0487 14.2875 61.5147C15.9511 60.6856 18.4383 59.5962 20.0308 59.5962C22.2369 59.5962 25.2994 62.6303 27.5154 62.6303C30.1994 62.6303 32.6986 59.5962 35.0021 59.5962C37.3055 59.5962 39.8047 62.6303 42.4888 62.6303C44.7047 62.6303 47.7694 59.5962 49.9744 59.5962C51.5713 59.5962 54.0727 60.6944 55.7363 61.5245L55.7811 60.118C54.6568 59.5689 51.1075 57.9195 49.095 57.9195" fill="#333333"/>
<path d="M41.9026 65.4817C39.4275 65.4817 37.1251 62.6828 35.0011 62.6828C32.8781 62.6828 30.5747 65.4817 28.0984 65.4817C26.0586 65.4817 23.2323 62.6828 21.198 62.6828C19.2434 62.6828 15.8167 64.4667 14.6792 65.089C14.8258 65.9236 14.9964 66.7658 15.2228 67.6331C15.2228 67.6331 19.5562 65.0136 21.8159 65.0136C23.7584 65.0136 26.4578 67.8114 28.4069 67.8114C30.7705 67.8114 32.9722 65.0136 35 65.0136C37.0278 65.0136 39.2306 67.8125 41.5942 67.8125C43.5422 67.8125 46.2437 65.0147 48.184 65.0147C50.4415 65.0147 54.7772 67.6342 54.7772 67.6342C54.9942 66.7942 55.1755 65.9455 55.3208 65.0901C54.1855 64.47 50.7555 62.6839 48.8031 62.6839C46.7676 62.6839 43.9425 65.4817 41.9026 65.4817" fill="#333333"/>
<path d="M20.5306 56.6377C22.6623 56.6377 25.6231 59.4366 27.7647 59.4366C30.358 59.4366 32.774 56.6377 34.9998 56.6377C37.2256 56.6377 39.6428 59.4366 42.235 59.4366C44.3787 59.4366 47.3373 56.6377 49.4723 56.6377C51.2562 56.6377 54.2247 57.832 55.7439 58.532C55.0712 46.0173 46.0762 37.8066 43.1811 31.838H43.7509V25.2755H43.0848C44.4684 21.5086 47.0617 16.5134 45.8203 11.3597C45.8203 11.3597 45.549 11.3608 45.0919 11.3859V2.1875H43.7619V11.503C41.4245 11.7666 37.5975 12.5289 34.9998 14.7448C32.4022 12.5278 28.5729 11.7666 26.2356 11.503V2.1875H24.9089V11.387C24.4528 11.3619 24.1804 11.3608 24.1804 11.3608C22.9369 16.5145 25.5312 21.5086 26.9159 25.2766H26.2476V31.8391H26.8186C23.9245 37.8077 14.9361 46.0195 14.2612 58.532C15.7815 57.8298 18.7445 56.6377 20.5306 56.6377ZM42.6583 26.5059V30.6075H41.1795V30.6097C44.0714 35.9942 45.0809 45.1402 45.0809 45.1402L39.7259 47.063C39.7259 47.063 39.7215 39.4592 37.9015 31.5536C38.2603 31.1948 38.4889 30.5802 38.5983 29.8714L40.8186 34.7659C40.6283 32.9066 39.4842 30.8284 38.6453 29.4809C38.7372 28.4517 38.6026 27.3098 38.2625 26.5059H42.6583V26.5059ZM33.135 25.8147C33.8973 25.0523 36.5661 25.0523 37.3295 25.8147C38.1028 26.5869 38.5961 30.3362 37.3295 31.6017C36.5705 32.3597 33.8929 32.3597 33.135 31.6017C31.7383 30.205 32.4251 26.5245 33.135 25.8147ZM29.5584 30.6075H27.3414V26.5059H32.2009C31.8815 27.2584 31.7404 28.3106 31.8017 29.2895C30.7856 30.7245 30.0561 32.2689 29.7476 32.9033L31.8684 29.8867C31.945 30.3833 32.0795 30.835 32.2786 31.1839C31.2592 34.5548 30.358 40.3812 30.358 40.3812L26.2148 39.4242C26.2148 39.4242 27.2254 34.4608 29.5584 30.6075Z" fill="#333333"/>
</svg>
