<svg width="70" height="81" viewBox="0 0 70 81" fill="none" xmlns="http://www.w3.org/2000/svg">
<g clip-path="url(#clip0)">
<path d="M3.5 80.9804H66.5C66.5 80.1002 67.0833 75.5157 68.25 67.2269C69.4167 58.9382 70 53.4735 70 50.8328C70 49.4391 68.3229 48.183 64.9688 47.0644C61.6146 45.9457 57.75 44.9555 53.375 44.0936C49 43.2317 46.375 42.6174 45.5 42.2506L42.6016 52.0431C40.1589 53.6202 37.625 54.4087 35 54.4087C32.375 54.4087 29.8411 53.6202 27.3984 52.0431L24.5 42.2506C23.625 42.6174 21 43.2317 16.625 44.0936C12.25 44.9555 8.38542 45.9457 5.03125 47.0644C1.67708 48.183 0 49.4391 0 50.8328C0 53.4735 0.583333 58.9382 1.75 67.2269C2.91667 75.5157 3.5 80.1002 3.5 80.9804ZM35 56.3342C37.1146 56.3709 39.375 55.8391 41.7812 54.7388L35 77.4595L28.2188 54.7388C30.625 55.8391 32.8854 56.3709 35 56.3342ZM44.5156 35.869C48.3073 38.7664 51.8438 39.9217 55.125 39.3349C53.375 38.308 52.3359 36.7493 52.0078 34.6587C52.5911 35.4289 53.4388 35.924 54.5508 36.1441C55.6628 36.3642 56.7474 36.2908 57.8047 35.924C56.0182 34.347 54.8333 32.7149 54.25 31.0278C53.6667 29.3407 53.2292 27.0301 52.9375 24.0961C52.7917 22.4823 52.6914 20.1993 52.6367 17.2468C52.582 14.2944 52.4089 11.993 52.1172 10.3426C51.8255 8.69219 51.2422 7.24349 50.3672 5.99651C49.2734 4.41945 47.013 3.02576 43.5859 1.81546C40.1589 0.605152 37.2969 0 35 0C31.8281 0 28.4922 0.788532 24.9922 2.3656C21.4922 3.94266 19.2865 6.0882 18.375 8.80222C18.1198 9.57241 17.9102 11.1862 17.7461 13.6434C17.582 16.1007 17.4635 18.5488 17.3906 20.9878C17.3177 23.4267 17.2812 24.7012 17.2812 24.8112C16.625 31.3029 15.276 35.3372 13.2344 36.9143C13.7448 37.2444 14.5469 37.2535 15.6406 36.9418C16.7344 36.6301 17.6823 36.1624 18.4844 35.5389C18.4479 36.6392 17.6276 38.1063 16.0234 39.9401C17.0078 40.1234 18.6393 39.775 20.918 38.8948C23.1966 38.0146 24.9557 37.171 26.1953 36.3642C28.9297 37.9412 31.8646 38.7298 35 38.7298C38.4635 38.7298 41.6354 37.7762 44.5156 35.869ZM24.0078 31.1929C23.6797 28.9923 23.8984 25.2514 24.6641 19.97C25.4297 14.6887 26.5599 11.6813 28.0547 10.9478C28.3099 10.8377 28.7839 11.067 29.4766 11.6354C30.1693 12.2039 30.5521 12.6899 30.625 13.0933C30.8438 14.2669 30.625 15.4039 29.9688 16.5042C30.6615 17.1276 32.0013 17.5127 33.9883 17.6594C35.9753 17.8062 37.7799 17.8153 39.4023 17.687C41.0247 17.5586 42.2552 17.4027 43.0938 17.2193C43.5312 17.6961 43.9414 18.2096 44.3242 18.7597C44.707 19.3099 45.026 19.9242 45.2812 20.6027C45.5365 21.2812 45.7552 21.868 45.9375 22.3631C46.1198 22.8583 46.293 23.5368 46.457 24.3986C46.6211 25.2605 46.7305 25.8657 46.7852 26.2141C46.8398 26.5625 46.9219 27.186 47.0312 28.0846C47.1406 28.9831 47.2135 29.5058 47.25 29.6525C45.8646 31.633 44.0964 33.2009 41.9453 34.3562C39.7943 35.5114 37.4792 36.0891 35 36.0891C30.625 36.0891 26.9609 34.457 24.0078 31.1929Z" fill="#333333"/>
</g>
<defs>
<clipPath id="clip0">
<rect width="70" height="80.9804" fill="white"/>
</clipPath>
</defs>
</svg>
