<svg width="70" height="70" viewBox="0 0 70 70" fill="none" xmlns="http://www.w3.org/2000/svg">
<path d="M67.3563 4.65175L67.3607 4.67253C66.9309 3.73409 65.5495 3.11612 62.6128 3.86972C61.3473 4.19347 59.7176 4.91097 58.4051 6.47284C48.756 -3.52184 34.7188 5.70722 18.4734 16.3921C17.1149 17.2824 15.7543 18.1792 14.3981 19.0586C2.80541 26.5902 1.82541 37.3352 2.27057 43.0719C2.7726 49.4999 5.51682 55.9114 9.60854 60.2219C13.6992 64.5313 19.7181 67.3521 25.7042 67.7633C31.0449 68.1232 41.0188 66.8544 47.7924 54.2402C48.5901 52.7543 49.3922 51.2708 50.1987 49.7897C58.6698 34.2016 66.1204 20.4838 61.2467 10.4869L62.1501 9.90503C63.6352 9.04706 65.1829 8.3023 66.7799 7.67706C68.6984 6.92237 67.3563 4.65175 67.3563 4.65175ZM39.4253 46.0644C30.1317 63.3774 18.7271 66.3217 11.236 58.4336C3.74932 50.5422 0.468067 32.1246 16.3821 21.7832C32.2918 11.4439 48.4432 -0.526064 56.8826 8.36394C65.3187 17.2528 48.7156 28.7471 39.4253 46.0644Z" fill="#333333"/>
<path d="M18.8059 29.5531C12.2346 36.7642 13.0429 47.1177 17.1193 49.1105C21.2242 51.1547 27.2299 47.9632 31.7023 43.1397C36.097 38.2342 38.9418 31.7144 36.9621 27.3416C35.0273 23.0016 25.3848 22.3431 18.8059 29.5531ZM23.3952 32.5467C23.007 33.5552 21.3959 35.9494 20.5067 38.1019C19.5234 40.2402 18.959 42.0974 17.8642 42.7963C16.7442 43.6658 15.3124 41.1906 18.0971 36.7927C20.9343 32.5861 23.9257 31.5328 23.3952 32.5467Z" fill="#333333"/>
</svg>
