<svg width="70" height="70" viewBox="0 0 70 70" fill="none" xmlns="http://www.w3.org/2000/svg">
<path d="M45.5722 12.8078C42.6967 12.8078 39.7316 13.3645 36.8003 14.525C36.9436 13.0987 37.5955 12.9893 37.5955 9.94544C37.5955 8.6045 36.5389 7.85091 35.5513 7.80388C33.6295 5.17778 31.6925 5.12638 30.9389 5.22919C30.3658 4.3345 28.9045 2.47185 26.5727 2.24763C15.6603 1.20747 4.42531 13.7779 4.42531 13.7779C4.42531 13.7779 9.92469 11.7031 15.6439 11.924C9.9925 18.9743 2.1875 23.0037 2.1875 23.0037C4.65172 22.0718 7.15203 20.9442 9.59109 19.4556C12.0345 17.9692 14.3555 16.1656 16.6173 14.2428C18.8825 12.3462 21.187 10.29 23.7508 8.657C24.9705 7.87097 26.2557 7.19143 27.592 6.62591C28.852 6.1206 30.0748 5.74544 31.2189 5.52997C28.6142 6.35349 26.1463 7.55958 23.8962 9.10872C21.5141 10.7504 19.3123 12.7323 17.0122 14.6792C14.7153 16.6162 12.2336 18.5281 9.66109 19.9587C8.42694 20.6506 7.15224 21.2675 5.84391 21.8061C4.59484 22.2939 3.36656 22.7117 2.1875 23.0037C2.1875 23.0037 4.48766 23.2411 7.88266 22.9348C5.97625 26.5136 4.86719 30.8568 4.86719 35.7372C4.86719 52.6542 14.7142 61.7936 26.6197 65.3286C29.5673 66.2047 29.493 67.7556 32.5752 67.8114L32.8366 67.8125C37.1044 67.8125 44.2816 66.0701 48.1567 64.6286C59.0986 60.5565 67.8125 51.6501 67.8125 35.7361C67.8114 22.1134 57.458 12.8078 45.5722 12.8078ZM31.1544 6.35029C31.7417 6.28903 33.0597 6.39075 34.4991 8.07622C34.1239 8.33435 33.868 8.77185 33.868 9.41278C33.868 11.9864 32.6889 13.0998 32.4341 14.4101C31.1603 13.8662 29.8399 13.439 28.4889 13.1337C30.4325 10.7789 30.9991 7.77435 31.1544 6.35029ZM47.0116 61.5529C43.2261 62.9617 36.4744 64.5312 32.8366 64.5312L32.6331 64.5301C31.8861 64.5159 31.8161 64.4656 31.1325 63.9811C30.3767 63.4473 29.3398 62.7134 27.5537 62.1818C20.3066 60.0315 8.14844 53.7337 8.14844 35.7361C8.14844 30.5583 9.56156 25.8551 12.1297 22.3081C16.3866 21.4364 21.3489 19.6339 25.6309 15.995C28.0875 16.2192 30.5955 17.0067 33.1078 18.3618L34.1359 18.9175C36.1495 21.2843 37.6677 23.8043 38.9003 26.3648C40.6744 30.1995 41.7966 34.137 42.2702 38.0526C42.7328 41.9639 42.5469 45.85 41.5034 49.5458C40.4228 53.2284 38.4048 56.677 35.1083 59.6137C39.3996 57.9976 42.8958 54.7786 44.8602 50.6351C46.7392 46.7709 47.2358 42.4451 46.7272 38.1554C46.1967 33.8603 44.672 29.5356 42.058 25.5325C40.4436 23.0387 38.3502 20.5942 35.7897 18.5828L36.1419 18.4045C39.1869 16.8689 42.3598 16.0901 45.5711 16.0901C56.3784 16.0901 64.5291 24.5372 64.5302 35.7372C64.5312 51.6862 55.0047 58.579 47.0116 61.5529Z" fill="#333333"/>
</svg>
