<svg width="70" height="70" viewBox="0 0 70 70" fill="none" xmlns="http://www.w3.org/2000/svg">
<path d="M32 68C46.9117 68 59 55.9117 59 41C59 26.0883 46.9117 14 32 14C17.0883 14 5 26.0883 5 41C5 55.9117 17.0883 68 32 68Z" stroke="#333333" stroke-width="2"/>
<path d="M26 5.14815L32.4286 2L35 10.8148V19L32.4286 18.3704L30.5 10.8148L26 5.14815Z" fill="white"/>
<path d="M32.3156 23C32.8769 19.0962 32.3998 10.0769 26 5.23077L32.3156 2C33.719 6.03846 36.1049 15.8923 34.4207 23" stroke="#333333" stroke-width="2"/>
<path d="M28 23C28.5556 24 30.3333 26 33 26C35.6667 26 37.4444 24 38 23" stroke="#333333" stroke-width="2"/>
<path d="M33 6.63165C34.8333 4.49974 39.8 1.40847 47 3.96676C45.5 7.16462 41.2 12.9208 34 10.3625" stroke="#333333" stroke-width="2"/>
</svg>
