<svg width="70" height="70" viewBox="0 0 70 70" fill="none" xmlns="http://www.w3.org/2000/svg">
<path d="M56.1532 8.4146C51.2485 4.92553 45.4324 5.09929 40.2144 8.89031C37.3844 10.9437 35.4675 13.49 33.4382 16.1875C30.2281 20.4513 26.9085 24.8604 19.285 28.5802C6.6792 34.8005 4.17393 46.5523 8.21556 54.9432C10.6313 59.9562 15.6466 64.089 22.1178 64.089C24.7719 64.0534 27.3849 63.4288 29.7682 62.2604C47.9414 54.2113 58.1552 43.6414 62.8834 27.9904C64.9795 21.0464 62.0886 12.6327 56.1532 8.4146ZM60.0923 27.1475C55.5718 42.1119 46.1498 51.8159 28.5577 59.6087C20.1881 63.5335 13.6287 59.4606 10.8445 53.6758C7.53058 46.7973 9.16259 36.8285 20.5698 31.1975C28.8167 27.1761 32.5096 22.2683 35.768 17.9418C37.7447 15.3157 39.4508 13.0485 41.9287 11.2485C43.8403 9.74564 46.1857 8.89956 48.6164 8.83598C50.7212 8.86654 52.7646 9.55032 54.4638 10.7928C56.9314 12.6421 58.787 15.1896 59.7904 18.1054C60.7939 21.0212 60.8989 24.1711 60.092 27.1473L60.0923 27.1475Z" fill="#333333"/>
<path d="M18.7497 47.9765C18.4756 47.9342 18.2163 47.8244 17.9952 47.6568C17.7742 47.4892 17.5984 47.2692 17.4837 47.0167C17.3118 46.6794 17.2205 46.3069 17.2168 45.9283C17.2131 45.5498 17.2971 45.1755 17.4623 44.8349C17.5584 44.6663 17.6198 44.4802 17.643 44.2875C17.6662 44.0948 17.6507 43.8995 17.5974 43.7128C17.5441 43.5262 17.4541 43.3521 17.3327 43.2007C17.2113 43.0494 17.0608 42.9237 16.8902 42.8312C16.7196 42.7387 16.5323 42.6812 16.3392 42.662C16.146 42.6429 15.951 42.6624 15.7656 42.7196C15.5801 42.7768 15.4079 42.8704 15.2591 42.9949C15.1103 43.1195 14.9878 43.2725 14.8989 43.445C14.5066 44.1998 14.3004 45.0375 14.2974 45.8882C14.2944 46.7388 14.4948 47.5779 14.8818 48.3354C15.2082 49.0099 15.6957 49.5935 16.3013 50.0346C16.9068 50.4758 17.6118 50.7608 18.3538 50.8646C18.4199 50.8737 18.4865 50.8786 18.5532 50.8792C18.9223 50.8785 19.2774 50.7378 19.5468 50.4855C19.8162 50.2332 19.9799 49.8881 20.0048 49.5198C20.0298 49.1516 19.9141 48.7876 19.6811 48.5012C19.4482 48.2149 19.1153 48.0276 18.7497 47.9771V47.9765Z" fill="#333333"/>
<path d="M52.9287 20.5736C52.6938 20.7217 52.4256 20.8087 52.1485 20.8267C51.8714 20.8446 51.5942 20.7928 51.3422 20.6761C50.9918 20.5342 50.6791 20.3129 50.4286 20.0298C50.1781 19.7466 49.9966 19.4092 49.8985 19.0441C49.8104 18.6716 49.5793 18.3487 49.2552 18.145C48.9311 17.9414 48.5399 17.8733 48.166 17.9556C47.7922 18.0378 47.4656 18.2637 47.2569 18.5846C47.0482 18.9055 46.974 19.2956 47.0503 19.6707C47.2482 20.4978 47.6409 21.2656 48.1957 21.9102C48.7504 22.5548 49.4512 23.0574 50.2397 23.3763C50.8201 23.6181 51.4423 23.7439 52.071 23.7465C52.9421 23.7479 53.7945 23.4944 54.5234 23.0174C54.8455 22.805 55.0704 22.4737 55.1489 22.096C55.2274 21.7182 55.1531 21.3247 54.9422 21.0016C54.7313 20.6785 54.4011 20.4521 54.0237 20.3719C53.6463 20.2917 53.2525 20.3642 52.9284 20.5736H52.9287Z" fill="#333333"/>
<path d="M29.2854 40.1125C29.3515 40.1216 29.418 40.1264 29.4847 40.1271C29.854 40.1267 30.2094 39.9862 30.4791 39.7339C30.7488 39.4816 30.9127 39.1364 30.9377 38.7679C30.9627 38.3995 30.8469 38.0353 30.6138 37.7489C30.3806 37.4625 30.0475 37.2753 29.6816 37.225C29.4074 37.1826 29.1481 37.0727 28.9271 36.905C28.7061 36.7373 28.5303 36.5172 28.4156 36.2645C28.2438 35.9273 28.1524 35.5547 28.1487 35.1762C28.145 34.7976 28.229 34.4234 28.3943 34.0828C28.4903 33.9142 28.5517 33.7281 28.5749 33.5354C28.5981 33.3427 28.5826 33.1473 28.5293 32.9607C28.476 32.7741 28.3861 32.6 28.2646 32.4486C28.1432 32.2972 27.9928 32.1716 27.8222 32.0791C27.6516 31.9866 27.4642 31.9291 27.2711 31.9099C27.078 31.8907 26.883 31.9103 26.6975 31.9675C26.512 32.0246 26.3398 32.1182 26.191 32.2428C26.0422 32.3674 25.9197 32.5204 25.8308 32.6929C25.4382 33.4471 25.2318 34.2843 25.2288 35.1346C25.2258 35.9848 25.4264 36.8235 25.8138 37.5804C26.1394 38.2555 26.6267 38.8398 27.2323 39.2815C27.8379 39.7232 28.5431 40.0086 29.2854 40.1125Z" fill="#333333"/>
<path d="M31.873 48.8765C31.6732 49.0694 31.4285 49.2095 31.1609 49.2841C30.8934 49.3587 30.6115 49.3655 30.3407 49.3038C29.9687 49.2359 29.6174 49.0829 29.3145 48.8565C29.0116 48.6302 28.7652 48.3367 28.5947 47.9992C28.4361 47.6464 28.1438 47.3711 27.7822 47.2339C27.4206 47.0966 27.0192 47.1086 26.6665 47.2672C26.3137 47.4258 26.0384 47.7181 25.9011 48.0797C25.7638 48.4414 25.7758 48.8427 25.9344 49.1955C26.2973 49.9644 26.8385 50.6356 27.513 51.1533C28.1874 51.671 28.9757 52.0202 29.8123 52.1719C30.1125 52.2273 30.4171 52.255 30.7224 52.2545C31.3175 52.2591 31.9075 52.1457 32.4585 51.9208C33.0095 51.6959 33.5104 51.364 33.9323 50.9443C34.2034 50.6706 34.3552 50.3008 34.3547 49.9155C34.3541 49.5303 34.2013 49.1608 33.9294 48.8879C33.6576 48.6149 33.2888 48.4605 32.9036 48.4584C32.5183 48.4562 32.1479 48.6065 31.873 48.8765Z" fill="#333333"/>
<path d="M39.8012 30.4057C40.1694 30.4035 40.5231 30.2621 40.7914 30.01C41.0596 29.7578 41.2226 29.4135 41.2475 29.0461C41.2724 28.6788 41.1575 28.3156 40.9257 28.0295C40.694 27.7434 40.3626 27.5555 39.9981 27.5036C39.7235 27.4609 39.4639 27.3506 39.2427 27.1826C39.0214 27.0145 38.8455 26.7941 38.7306 26.5411C38.559 26.2037 38.4679 25.8311 38.4644 25.4526C38.4609 25.0741 38.5453 24.6999 38.7107 24.3594C38.8947 24.0194 38.9363 23.6203 38.8262 23.2498C38.7161 22.8792 38.4633 22.5675 38.1235 22.3832C37.7837 22.1989 37.3847 22.1571 37.014 22.2669C36.6434 22.3767 36.3315 22.6291 36.1469 22.9688C35.7547 23.7236 35.5484 24.5611 35.5452 25.4117C35.542 26.2623 35.7419 27.1014 36.1284 27.8592C36.4548 28.5336 36.9421 29.1173 37.5474 29.5589C38.1527 30.0005 38.8573 30.2864 39.5992 30.3913C39.6662 30.4003 39.7336 30.4051 39.8012 30.4057Z" fill="#333333"/>
<path d="M45.6002 36.0081C45.2233 35.9222 44.8277 35.989 44.5 36.194C44.1723 36.399 43.9391 36.7254 43.8514 37.1019C43.7848 37.3712 43.6519 37.6196 43.4648 37.8246C43.2778 38.0295 43.0425 38.1844 42.7803 38.2753C42.4291 38.4176 42.0495 38.476 41.6718 38.4458C41.294 38.4157 40.9285 38.2978 40.6043 38.1016C40.4449 37.9958 40.2663 37.9224 40.0786 37.8855C39.8909 37.8487 39.6978 37.8492 39.5102 37.8871C39.3227 37.9249 39.1445 37.9993 38.9857 38.106C38.8269 38.2127 38.6907 38.3496 38.5849 38.5089C38.479 38.6683 38.4056 38.8469 38.3688 39.0346C38.332 39.2223 38.3325 39.4154 38.3703 39.603C38.4081 39.7905 38.4825 39.9687 38.5892 40.1275C38.6959 40.2863 38.8328 40.4225 38.9922 40.5283C39.8422 41.083 40.8367 41.3752 41.8517 41.3685C42.5392 41.3693 43.2206 41.2398 43.8598 40.9869C44.5604 40.7215 45.1852 40.2882 45.6794 39.725C46.1735 39.1618 46.5218 38.4859 46.6938 37.7567C46.7805 37.3798 46.714 36.9839 46.5089 36.656C46.3038 36.3282 45.977 36.0951 45.6002 36.0081Z" fill="#333333"/>
</svg>
