<svg width="70" height="70" viewBox="0 0 70 70" fill="none" xmlns="http://www.w3.org/2000/svg">
<path d="M66.0769 30.0923L68 29.0909V24.8182L43 12L18 24.8182V29.0909L19.9231 30.0923V47.9176C19.9231 48.7633 20.1885 49.3975 20.7194 49.8203C21.2502 50.2431 21.9463 50.4545 22.8077 50.4545C23.6691 50.4545 24.3652 50.2431 24.896 49.8203C25.4269 49.3975 25.6923 48.7633 25.6923 47.9176V33.0298L40.1154 40.4403V56.4631C40.1154 57.3087 40.3808 57.9429 40.9117 58.3658C41.4425 58.7886 42.1386 59 43 59C43.8614 59 44.5575 58.7886 45.0883 58.3658C45.6192 57.9429 45.8846 57.3087 45.8846 56.4631V40.4403L60.3077 33.0298V47.9176C60.3077 48.7633 60.5731 49.3975 61.104 49.8203C61.6348 50.2431 62.3309 50.4545 63.1923 50.4545C64.0537 50.4545 64.7498 50.2431 65.2806 49.8203C65.8115 49.3975 66.0769 48.7633 66.0769 47.9176V30.0923ZM43 37.6364L19.9231 25.8864L43 14.1364L66.0769 25.8864L43 37.6364Z" fill="#333333"/>
<path d="M8.54545 41C12.1604 41 15.0909 38.0695 15.0909 34.4545C15.0909 30.8396 12.1604 27.9091 8.54545 27.9091C4.9305 27.9091 2 30.8396 2 34.4545C2 38.0695 4.9305 41 8.54545 41Z" fill="white" stroke="#333333" stroke-width="0.5"/>
<path d="M7.09106 25.7632L8.64951 25L9.27288 27.1369V29.1212L8.64951 28.9686L8.18197 27.1369L7.09106 25.7632Z" fill="white"/>
<path d="M8.62211 30.0909C8.7582 29.1445 8.64252 26.958 7.09106 25.7832L8.62211 25C8.96234 25.979 9.54074 28.3678 9.13246 30.0909" stroke="#333333" stroke-width="0.5"/>
<path d="M7.57568 30.0909C7.71036 30.3333 8.14134 30.8182 8.7878 30.8182C9.43427 30.8182 9.86525 30.3333 9.99993 30.0909" stroke="#333333" stroke-width="0.5"/>
<path d="M8.78784 26.1228C9.23229 25.606 10.4363 24.8566 12.1818 25.4768C11.8181 26.252 10.7757 27.6474 9.03027 27.0273" stroke="#333333" stroke-width="0.5"/>
</svg>
