<svg width="70" height="70" viewBox="0 0 70 70" fill="none" xmlns="http://www.w3.org/2000/svg">
<path d="M33.5455 25C37.1604 25 40.0909 22.0695 40.0909 18.4545C40.0909 14.8396 37.1604 11.9091 33.5455 11.9091C29.9305 11.9091 27 14.8396 27 18.4545C27 22.0695 29.9305 25 33.5455 25Z" fill="white" stroke="#333333" stroke-width="0.5"/>
<path d="M32.0911 9.76319L33.6495 9L34.2729 11.1369V13.1212L33.6495 12.9686L33.182 11.1369L32.0911 9.76319Z" fill="white"/>
<path d="M33.6221 14.0909C33.7582 13.1445 33.6425 10.958 32.0911 9.78322L33.6221 9C33.9623 9.97902 34.5407 12.3678 34.1325 14.0909" stroke="#333333" stroke-width="0.5"/>
<path d="M32.5757 14.0909C32.7104 14.3333 33.1413 14.8182 33.7878 14.8182C34.4343 14.8182 34.8652 14.3333 34.9999 14.0909" stroke="#333333" stroke-width="0.5"/>
<path d="M33.7878 10.1228C34.2323 9.60599 35.4363 8.85659 37.1818 9.47678C36.8181 10.252 35.7757 11.6474 34.0303 11.0273" stroke="#333333" stroke-width="0.5"/>
<path d="M67.3077 28.8179L70 27.3913V21.3043L35 3.04347L-4.76837e-07 21.3043V27.3913L2.69231 28.8179V54.212C2.69231 55.4167 3.0639 56.3202 3.80709 56.9225C4.55028 57.5249 5.52484 57.8261 6.73077 57.8261C7.9367 57.8261 8.91126 57.5249 9.65445 56.9225C10.3976 56.3202 10.7692 55.4167 10.7692 54.212V33.0027L30.9615 43.5598V66.3859C30.9615 67.5906 31.3331 68.4941 32.0763 69.0965C32.8195 69.6988 33.7941 70 35 70C36.2059 70 37.1805 69.6988 37.9237 69.0965C38.6669 68.4941 39.0385 67.5906 39.0385 66.3859V43.5598L59.2308 33.0027V54.212C59.2308 55.4167 59.6024 56.3202 60.3456 56.9225C61.0887 57.5249 62.0633 57.8261 63.2692 57.8261C64.4752 57.8261 65.4497 57.5249 66.1929 56.9225C66.9361 56.3202 67.3077 55.4167 67.3077 54.212V28.8179ZM35 39.5652L2.69231 22.8261L35 6.08695L67.3077 22.8261L35 39.5652Z" fill="#333333"/>
</svg>
