<svg width="70" height="70" viewBox="0 0 70 70" fill="none" xmlns="http://www.w3.org/2000/svg">
<path d="M55.4464 30.4328C58.3242 30.4366 61.1628 29.8084 63.7634 28.5983C64.5306 30.9194 65.0098 33.371 65.1465 35.5547C66.0328 49.7135 54.4792 61.7435 41.5577 66.2224L41.5575 66.2225C32.3378 69.4207 21.9051 69.7561 12.4323 67.3892L12.4319 67.3891C7.25883 66.099 4.57118 62.3246 3.16497 57.5684C1.74646 52.7706 1.689 47.1371 1.71643 42.4489L1.71644 42.4483C1.75937 34.3884 3.93682 25.4016 8.37478 18.3506C12.7997 11.3203 19.4248 6.27078 28.4193 5.84422L28.4193 5.84422C30.9771 5.72286 33.5888 5.93032 36.1839 6.37046C35.8703 7.75432 35.6954 9.19419 35.6954 10.6805C35.6954 21.5902 44.5369 30.4321 55.4464 30.4328ZM55.4464 30.4328L55.4477 29.4328M55.4464 30.4328C55.4468 30.4328 55.4473 30.4328 55.4477 30.4328V29.4328M55.4477 29.4328C58.212 29.4364 60.9383 28.8256 63.4309 27.6498L55.4477 29.4328Z" stroke="black" stroke-width="2"/>
<path d="M18.5172 20.9235C16.8876 21.9188 15.0282 21.7602 14.3337 20.6172C13.6555 19.4524 14.4212 17.7078 16.0344 16.7125C17.6532 15.7336 19.5235 15.8703 20.2016 17.0297C20.8907 18.1891 20.1196 19.9446 18.5172 20.9235Z" fill="#DBDBDB"/>
<path d="M14.5797 34.5789C14.0273 36.4055 12.5234 37.5211 11.2492 37.1219C9.96405 36.7008 9.37889 34.8852 9.9367 33.0696C10.4945 31.2649 11.993 30.1274 13.2726 30.5485C14.5469 30.9641 15.143 32.7797 14.5797 34.5789Z" fill="#DBDBDB"/>
<path d="M27.8578 33.9719C26.693 35.4813 24.8992 36.0008 23.8492 35.175C22.7992 34.3219 22.8922 32.4188 24.0515 30.9203C25.2109 29.4274 27.0101 28.8914 28.0601 29.7336C29.1047 30.5703 29.0117 32.4844 27.8578 33.9719Z" fill="#DBDBDB"/>
<path d="M13.3602 50.7117C13.1415 52.6094 11.8672 53.9766 10.5438 53.8125C9.20396 53.6266 8.30708 51.9477 8.52036 50.0664C8.74458 48.1852 10.0079 46.8016 11.3477 46.9875C12.6766 47.157 13.579 48.8414 13.3602 50.7117Z" fill="#DBDBDB"/>
<path d="M52.1008 45.6094C51.4391 47.3977 51.9531 49.1969 53.211 49.6508C54.4797 50.0938 56.0547 49.011 56.7164 47.2336C57.3617 45.4508 56.8696 43.6461 55.5953 43.1977C54.3211 42.7547 52.7516 43.8375 52.1008 45.6094Z" fill="#DBDBDB"/>
<path d="M40.1188 54.1899C38.3688 54.95 37.4282 56.5633 37.9696 57.7883C38.5329 59.0133 40.4087 59.3907 42.1477 58.6414C43.8813 57.8813 44.8438 56.268 44.2751 55.043C43.7173 53.8125 41.847 53.4297 40.1188 54.1899Z" fill="#DBDBDB"/>
<path d="M37.5757 40.5016C36.2085 41.8305 35.8968 43.6734 36.8374 44.6195C37.7999 45.5711 39.6812 45.2649 41.0429 43.9469C42.3937 42.6234 42.7273 40.775 41.7648 39.8289C40.8132 38.8774 38.9265 39.1891 37.5757 40.5016Z" fill="#DBDBDB"/>
<path d="M22.7117 44.5156C21.4539 45.9484 21.2843 47.8078 22.3015 48.6828C23.3296 49.5524 25.189 49.1039 26.4414 47.6766C27.6882 46.2492 27.8742 44.3844 26.8351 43.5149C25.8179 42.6453 23.9585 43.0992 22.7117 44.5156Z" fill="#DBDBDB"/>
<path d="M22.7828 58.1219C20.9234 58.5484 19.7039 59.9648 20.0156 61.2664C20.3492 62.5734 22.1156 63.2844 23.9641 62.8578C25.807 62.4258 27.043 61.0148 26.7094 59.7078C26.3922 58.4008 24.6148 57.6898 22.7828 58.1219Z" fill="#DBDBDB"/>
<path d="M35.4047 0.224221C32.7032 -0.0765603 28.9461 0.0656272 26.3649 0.984377C24.8391 1.52578 25.1289 2.25313 25.9875 3.325C26.2195 3.61324 26.7756 4.1402 27.4655 4.79393C29.5244 6.74489 32.7748 9.82486 32.1563 11.0578C31.5665 12.2374 30.3005 12.8444 29.1043 13.4179L29.0993 13.4203C28.5852 13.6664 28.0875 13.907 27.6446 14.1859L35.4047 0.224221ZM35.4047 0.224221L35.294 1.21807M35.4047 0.224221L35.294 1.21807M28.1788 15.0313C28.0252 15.1287 27.8719 15.2242 27.7196 15.3192C27.1305 15.6862 26.5555 16.0446 26.0349 16.4666C25.4122 16.9714 24.9796 17.4835 24.7783 18.0462C24.7803 18.048 24.7825 18.0498 24.7847 18.0517C24.9378 18.1812 25.255 18.3365 25.7441 18.4796C26.5859 18.726 27.5667 18.8375 28.127 18.9012C28.2015 18.9097 28.2685 18.9173 28.3268 18.9243L28.3332 18.9251L28.3332 18.9251C29.0309 19.0132 29.7261 19.0583 30.4577 19.1058C30.782 19.1269 31.1134 19.1484 31.4553 19.1744C32.5355 19.2563 33.6728 19.3807 34.7871 19.6922C36.0283 20.0367 37.0954 20.5022 37.527 21.5611C37.7302 22.0596 37.7439 22.5816 37.7004 23.0679C37.6571 23.5517 37.5461 24.0991 37.4219 24.6808C37.3176 25.1727 37.2035 25.6345 37.0935 26.0794C36.8841 26.9263 36.6898 27.712 36.6079 28.5286C36.5502 29.1442 36.4911 29.8053 36.4936 30.4488C36.4961 31.1008 36.563 31.6594 36.716 32.0814C36.7608 32.2028 36.8018 32.2236 36.857 32.2443C36.9634 32.2841 37.186 32.3153 37.5817 32.254C38.3787 32.1306 39.4439 31.7085 40.6552 31.1524C41.0778 30.9584 41.5229 30.7457 41.9699 30.5321C42.7327 30.1675 43.5007 29.8004 44.1706 29.52C44.7135 29.2927 45.2543 29.0943 45.7455 28.9819C46.1988 28.8781 46.7929 28.8018 47.3311 29.0204L47.3328 29.0211C47.8857 29.2469 48.2867 29.6825 48.5801 30.1108C48.8803 30.5489 49.1321 31.0748 49.3522 31.6163C49.6807 32.4244 49.9829 33.3856 50.2738 34.3106C50.3679 34.6099 50.4609 34.9054 50.5531 35.1907C50.949 36.4152 51.333 37.4565 51.7715 38.142C51.9876 38.4798 52.1713 38.6564 52.3062 38.7378C52.4087 38.7996 52.4925 38.8165 52.6221 38.7854L52.6242 38.7849C52.6239 38.785 52.624 38.785 52.6247 38.7847C52.6319 38.7821 52.6992 38.7576 52.8266 38.6562C52.9573 38.5522 53.1052 38.4041 53.2616 38.2203C53.5744 37.8529 53.8561 37.4205 54.0358 37.1195C54.9284 35.6162 55.5298 33.9811 56.1055 32.2325C56.3948 31.3466 56.8867 30.5209 57.7771 30.1789C58.6557 29.8414 59.5767 30.1105 60.3883 30.5392L60.3909 30.5407C62.0939 31.447 63.6114 32.5891 64.9942 33.8641M28.1788 15.0313L64.318 34.6008M28.1788 15.0313C28.5647 14.7885 29.0099 14.5718 29.5311 14.3223L29.5316 14.322C29.5698 14.3037 29.6087 14.2851 29.648 14.2663C30.7608 13.7342 32.3054 12.9957 33.0507 11.505C33.3146 10.9781 33.2492 10.4285 33.1238 10.0117C32.9958 9.58659 32.7658 9.16265 32.5069 8.76804C31.9865 7.97485 31.2229 7.11294 30.4474 6.31005C29.6701 5.50523 28.8406 4.71923 28.1595 4.07388L28.1453 4.06039C27.4265 3.37933 26.9443 2.91858 26.7672 2.69882C26.5639 2.44489 26.4288 2.25323 26.3475 2.10423C26.3437 2.0972 26.3401 2.09044 26.3367 2.08394C26.4119 2.04207 26.5274 1.98779 26.6993 1.92681L26.7002 1.92648C29.0862 1.07724 32.6757 0.926565 35.294 1.21807M28.1788 15.0313L44.844 4.81389M64.9942 33.8641C64.9948 33.8646 64.9953 33.8651 64.9959 33.8656L64.318 34.6008M64.9942 33.8641C64.9936 33.8635 64.9931 33.863 64.9925 33.8625L64.318 34.6008M64.9942 33.8641C65.4699 34.299 65.9172 34.8518 66.3018 35.327C66.4498 35.5099 66.5885 35.6813 66.716 35.8301C66.9935 36.1539 67.2551 36.424 67.5257 36.6374M64.318 34.6008C64.7357 34.9824 65.1012 35.4345 65.4676 35.8875C66.1567 36.7396 66.8485 37.5951 67.8946 37.9914M67.5257 36.6374C67.4012 36.9693 67.2767 37.1899 67.1696 37.3027L67.8946 37.9914M67.5257 36.6374C67.5655 36.5311 67.6054 36.4134 67.6446 36.2842C67.7903 35.8049 67.8919 35.2962 67.979 34.8601L67.9913 34.7984L67.9924 34.7932C69.1726 29.0525 66.592 23.4726 62.5907 19.0404M67.5257 36.6374C67.7553 36.8185 67.9913 36.9587 68.2488 37.0563L67.8946 37.9914M67.8946 37.9914L62.5907 19.0404M62.5907 19.0404C62.7219 18.95 62.8581 18.8597 63.004 18.7629C63.0984 18.7003 63.197 18.6349 63.3008 18.5651L62.743 17.7352L62.0199 18.4259C62.2131 18.6282 62.4035 18.833 62.5907 19.0404ZM62.5907 19.0404C62.5124 19.0944 62.436 19.1483 62.3603 19.2037L62.3511 19.2105L62.3417 19.217C61.4031 19.8718 60.6098 20.6058 59.7483 21.4029C59.4252 21.7018 59.0925 22.0096 58.7389 22.3255L58.7337 22.3301C58.7185 22.3434 58.703 22.3571 58.6872 22.3711C58.2606 22.7474 57.6061 23.3248 56.8835 23.6202C55.3823 24.2404 53.534 23.1732 53.4856 21.4603L53.4854 21.4526L53.4854 21.4526C53.4726 20.8317 53.6683 20.2783 53.8882 19.8336C54.0979 19.4093 54.3645 19.0182 54.5696 18.7173L54.5938 18.6816L54.5961 18.6782C55.1141 17.9244 55.7112 17.2886 56.2621 16.702C56.355 16.603 56.4467 16.5055 56.5364 16.409L56.5403 16.4048C57.0802 15.8306 57.6299 15.3242 58.1864 14.8553M62.5907 19.0404L58.1864 14.8553M35.294 1.21807C38.9029 1.6201 41.9671 2.97349 44.844 4.81389M44.844 4.81389C44.7929 4.87192 44.7412 4.93035 44.6893 4.98917C44.1327 5.61912 43.5373 6.29299 43.0313 6.98266L43.0282 6.98688L43.022 6.99549C42.6821 7.4638 42.2124 8.11094 41.8716 8.81842C41.5324 9.52253 41.2517 10.4237 41.4606 11.37C41.581 11.9253 41.8433 12.421 42.2718 12.7906C42.6968 13.1571 43.2132 13.3376 43.7391 13.3922C44.664 13.4893 45.4008 13.0265 45.8921 12.6109C46.2663 12.2946 46.6239 11.8904 46.8833 11.5972C46.9556 11.5155 47.0202 11.4425 47.0755 11.3823C47.8402 10.5646 48.5736 9.72428 49.2933 8.89833L49.3499 8.83332C50.0501 8.02966 50.7376 7.2405 51.4474 6.47552C52.3858 5.54309 53.3419 4.65192 54.3121 3.85034C56.76 1.83673 59.8731 1.08236 62.139 2.94757L44.844 4.81389ZM58.1864 14.8553L58.1686 14.8375L59.0052 14.1361C59.6571 13.5895 60.4072 13.0862 61.1102 12.6145C61.2251 12.5374 61.3387 12.4612 61.4505 12.3857C62.1652 11.8749 62.8069 11.3866 63.3691 10.7953L63.3739 10.7902C63.3857 10.778 63.3982 10.7651 63.4113 10.7515C63.5415 10.6162 63.7345 10.4156 63.9502 10.2153C64.2408 9.83241 64.4615 9.4357 64.5963 8.99784C65.1982 6.94966 63.9602 4.45237 62.1401 2.94845L58.1864 14.8553ZM56.5032 22.6953C57.0664 22.4656 57.6133 21.9844 58.0727 21.5797C58.3964 21.2905 58.7117 20.9987 59.0255 20.7084L56.5032 22.6953ZM56.5032 22.6953C55.6063 23.0672 54.5125 22.4 54.4852 21.432L56.5032 22.6953ZM52.8555 39.7578C53.6375 39.5719 54.5071 38.2813 54.8954 37.6305L35.7766 32.4242C36.4562 34.2778 39.5994 32.7745 42.4407 31.4156C44.3777 30.4892 46.1744 29.6299 46.9547 29.9469C47.9851 30.3676 48.6372 32.4407 49.3093 34.5775C50.1747 37.3287 51.0733 40.1857 52.8555 39.7578Z" fill="white" stroke="black" stroke-width="2"/>
</svg>
