<svg width="70" height="70" viewBox="0 0 70 70" fill="none" xmlns="http://www.w3.org/2000/svg">
<path fill-rule="evenodd" clip-rule="evenodd" d="M66.559 52.2386C69.9124 42.4365 66.3993 29.9458 57.6613 20.9147C52.9615 16.0541 47.2805 12.7105 41.4541 11.2449C44.2848 8.32018 45.9987 5.69846 45.9987 5.69846C45.9987 5.69846 37.8491 8.50284 30.2126 5.06627C23.4412 2.02237 18.4854 9.92143 17.3479 11.9492C15.4688 10.4016 12.8941 8.91409 9.66867 8.52252C9.25195 8.47331 9.12945 10.0767 9.53523 10.1632C10.139 10.2922 10.699 10.4585 11.2448 10.6389C8.62304 12.3047 -0.989925 19.1647 3.25492 27.7288C8.0882 37.4697 4.97976 48.2377 4.97976 48.2377C6.36336 45.3141 7.51617 42.245 8.06086 39.0425C8.62195 35.84 8.57929 32.5785 8.29601 29.3147C8.05539 26.0597 7.62883 22.68 8.10351 19.2752C8.33649 17.6017 8.78158 15.9647 9.42804 14.4036C10.1007 12.8932 10.9177 11.4866 11.8846 10.2474C10.3041 13.0419 9.17758 16.1482 8.92601 19.3813C8.66461 22.61 9.09664 25.8497 9.37445 29.1638C9.64133 32.4702 9.65773 35.9461 8.87242 39.2471C8.49443 40.8739 7.97248 42.464 7.31273 43.9983C6.62914 45.4891 5.8657 46.9219 4.97867 48.2377C4.97867 48.2377 10.501 44.2039 15.0609 38.1096C16.4226 44.1055 19.6109 50.1091 24.454 55.1119C30.9159 61.7904 39.2196 65.6229 47.2368 65.6229C49.8968 65.6229 52.4266 65.193 54.7662 64.3486C55.6959 64.913 56.7852 65.2061 57.9599 65.2061C59.7438 65.2061 61.5704 64.5368 63.1727 63.3424C63.8563 63.4747 64.6898 63.4321 65.1918 62.9169C65.6829 62.4007 65.7255 61.5366 65.5976 60.8268C67.5532 58.0322 67.959 54.6602 66.559 52.2386V52.2386ZM57.961 62.5341C57.1177 62.5341 56.3805 62.2869 55.8249 61.821L55.2059 61.3058L54.4577 61.6055C52.2473 62.4969 49.8235 62.9497 47.2379 62.9497C39.9426 62.9497 32.3377 59.418 26.3779 53.2558C21.1826 47.8844 18.0205 41.3044 17.1816 34.9782C20.1348 30.1088 22.0149 24.3261 20.359 18.3728C20.5723 18.0578 20.8184 17.7264 21.1596 17.3775C22.1582 16.3428 23.0441 15.96 23.4018 15.9119L24.0318 16.4019L24.8324 15.8824C27.6685 14.0449 31.1401 13.0747 34.8719 13.0747C42.1673 13.0747 49.7666 16.6097 55.7363 22.7719C63.9613 31.2758 67.2076 43.0008 63.8115 51.9455L63.5446 52.6466L64.004 53.2383C65.3602 54.9807 64.7193 58.0957 62.5624 60.3324C61.2291 61.7105 59.5098 62.5341 57.961 62.5341" fill="#333333"/>
</svg>
