<svg width="70" height="70" viewBox="0 0 70 70" fill="none" xmlns="http://www.w3.org/2000/svg">
<path d="M0.714355 1.45833C1.51793 4.45175 2.6712 6.81195 4.17418 8.53893C5.67715 10.2659 7.48519 11.4364 9.59828 12.0504C11.7114 12.6645 14.1742 13.0291 16.9867 13.1442C19.7992 13.2593 22.9019 13.2145 26.2947 13.0099C28.1102 12.9331 29.4941 12.8819 30.4465 12.8564C28.8691 1.57346 18.9584 -2.22588 0.714355 1.45833ZM12.8126 15.5044C9.71733 15.5044 7.06852 16.4574 4.86614 18.3635C2.66376 20.2696 1.56257 22.553 1.56257 25.2138C1.56257 27.8491 2.6712 30.1197 4.88846 32.0258C7.10572 33.9318 9.74709 34.8849 12.8126 34.8849C14.5983 34.8849 16.2649 34.5523 17.8126 33.8871C19.3602 33.2219 20.6548 32.3008 21.6965 31.1239C20.5953 29.3074 20.0447 27.3374 20.0447 25.2138C20.0447 23.0647 20.5953 21.0819 21.6965 19.2654C20.6548 18.0885 19.3602 17.1674 17.8126 16.5022C16.2649 15.837 14.5983 15.5044 12.8126 15.5044ZM37.5447 15.7347C37.634 13.0738 38.6682 10.8352 40.6474 9.01864C42.6266 7.20212 45.0596 5.8973 47.9465 5.10417C50.8334 4.31104 54.0774 3.88889 57.6786 3.83772V0C55.1191 0.0255848 52.6786 0.243056 50.3572 0.652412C48.0358 1.06177 45.8408 1.6822 43.7724 2.51371C41.7039 3.34521 39.9108 4.3686 38.3929 5.58388C36.8751 6.79916 35.6697 8.27029 34.7769 9.99726C33.884 11.7242 33.4376 13.6239 33.4376 15.6963C30.759 16.0545 28.5343 17.1354 26.7635 18.9391C24.9926 20.7429 24.1072 22.8344 24.1072 25.2138C24.1072 27.8746 25.2084 30.1517 27.4108 32.045C29.6132 33.9382 32.262 34.8849 35.3572 34.8849C38.4524 34.8849 41.1013 33.9382 43.3036 32.045C45.506 30.1517 46.6072 27.8746 46.6072 25.2138C46.6072 22.8856 45.7441 20.8324 44.0179 19.0543C42.2917 17.2761 40.134 16.1696 37.5447 15.7347ZM57.8572 15.5044C56.0715 15.5044 54.4048 15.837 52.8572 16.5022C51.3096 17.1674 50.0149 18.0885 48.9733 19.2654C50.0745 21.0819 50.6251 23.0647 50.6251 25.2138C50.6251 27.3374 50.0745 29.3074 48.9733 31.1239C50.0149 32.3008 51.3096 33.2219 52.8572 33.8871C54.4048 34.5523 56.0715 34.8849 57.8572 34.8849C60.9524 34.8849 63.6013 33.9382 65.8036 32.045C68.006 30.1517 69.1072 27.8746 69.1072 25.2138C69.1072 22.553 68.006 20.2696 65.8036 18.3635C63.6013 16.4574 60.9524 15.5044 57.8572 15.5044ZM56.8304 38.3004C52.6935 38.0702 49.2858 36.6758 46.6072 34.1173C43.8691 36.6758 40.4465 38.0702 36.3394 38.3004C35.6846 39.5285 35.3572 40.8717 35.3572 42.33C35.3572 44.9909 36.4584 47.2679 38.6608 49.1612C40.8632 51.0545 43.512 52.0011 46.6072 52.0011C49.7024 52.0011 52.3513 51.0545 54.5536 49.1612C56.756 47.2679 57.8572 44.9909 57.8572 42.33C57.8572 40.9485 57.5149 39.6053 56.8304 38.3004ZM32.9465 48.2785C31.8453 46.4364 31.2947 44.4536 31.2947 42.33C31.2947 40.8717 31.5774 39.439 32.1429 38.0318C28.8989 37.4434 26.2203 36.1385 24.1072 34.1173C21.3691 36.6758 17.9465 38.0702 13.8394 38.3004C13.1548 39.7844 12.8126 41.1276 12.8126 42.33C12.8126 44.9909 13.9212 47.2679 16.1385 49.1612C18.3557 51.0545 21.012 52.0011 24.1072 52.0011C25.8632 52.0011 27.5149 51.6685 29.0626 51.0033C30.6102 50.3381 31.9048 49.4298 32.9465 48.2785ZM45.5804 55.455C41.4733 55.1736 38.0655 53.7537 35.3572 51.1952C32.6191 53.7537 29.1816 55.1736 25.0447 55.455C24.4197 56.7343 24.1072 58.0519 24.1072 59.4079C24.1072 62.0687 25.2084 64.3458 27.4108 66.239C29.6132 68.1323 32.262 69.0789 35.3572 69.0789C38.4524 69.0789 41.1013 68.1323 43.3036 66.239C45.506 64.3458 46.6072 62.0687 46.6072 59.4079C46.6072 58.0007 46.2649 56.6831 45.5804 55.455Z" fill="#333333"/>
</svg>
