<svg width="70" height="70" viewBox="0 0 70 70" fill="none" xmlns="http://www.w3.org/2000/svg">
<path d="M39.2698 17.5C43.4407 17.5 47.3753 19.2879 50.3503 22.5342L54.6523 18.5909C50.5573 14.1254 45.0944 11.6667 39.2698 11.6667C33.4423 11.6667 27.9823 14.1254 23.8932 18.5938C21.8562 20.8209 20.2686 23.4206 19.2178 26.25H11.6665V32.0834H17.8323C17.7215 33.0459 17.6457 34.0171 17.6457 35C17.6457 35.9829 17.7215 36.9542 17.8323 37.9167H11.6665V43.75H19.2178C20.2736 46.5792 21.8457 49.1779 23.8932 51.4092C27.9823 55.8746 33.4423 58.3334 39.2698 58.3334C45.0944 58.3334 50.5573 55.8746 54.6494 51.4092L50.3473 47.4659C47.3753 50.7121 43.4407 52.5 39.2698 52.5C35.099 52.5 31.1673 50.715 28.1923 47.4659C27.1936 46.342 26.3455 45.0929 25.6694 43.75H37.9165V37.9167H23.7386C23.5928 36.96 23.479 35.9917 23.479 35C23.479 34.0084 23.5928 33.04 23.7386 32.0834H37.9165V26.25H25.6694C26.3694 24.9171 27.1744 23.6454 28.1923 22.5342C31.1673 19.2879 35.099 17.5 39.2698 17.5Z" fill="#333333"/>
</svg>
