<svg width="70" height="70" viewBox="0 0 70 70" fill="none" xmlns="http://www.w3.org/2000/svg">
<path d="M37.9985 31.3586V24.2816C40.3064 24.8465 42.5625 25.9224 44.4084 27.615L44.4161 27.6045C44.554 27.7144 44.7213 27.79 44.9117 27.79C45.1623 27.79 45.3772 27.6689 45.5256 27.4904L45.5361 27.4925L48.5195 23.2869L48.5125 23.2834C48.635 23.142 48.7162 22.9628 48.7162 22.7612C48.7162 22.5232 48.6091 22.3146 48.4453 22.1669C45.6782 19.6112 42.1453 18.0768 37.9985 17.6155V13.5513H37.9978C37.9978 13.1054 37.6366 12.7442 37.1907 12.7442H33.9861C33.5402 12.7442 33.179 13.1054 33.179 13.5513V17.5126C26.256 18.2301 22.154 22.6408 22.154 27.8201C22.154 34.7942 27.8975 36.7941 33.179 38.0765V46.0243C29.7875 45.4167 27.0001 43.659 25.1038 41.6913C25.0905 41.6766 25.0765 41.664 25.0618 41.6507L25.0254 41.615L25.0198 41.6227C24.8794 41.5023 24.7014 41.4347 24.5165 41.4316C24.3725 41.4329 24.2315 41.4731 24.1085 41.5481C23.9856 41.623 23.8851 41.7298 23.8179 41.8572L23.8081 41.8558L20.9206 46.1426L20.9241 46.1496C20.7944 46.2933 20.7217 46.4796 20.7197 46.6732C20.7197 46.9301 20.8471 47.1485 21.0333 47.2962L21.0256 47.3074C23.8459 50.1277 27.7946 52.1787 33.179 52.6407V56.4487C33.179 56.8946 33.5402 57.2558 33.9861 57.2558H37.1907C37.6366 57.2558 37.9978 56.8939 37.9978 56.4487H37.9985V52.64C45.5368 51.87 49.2804 47.4614 49.2804 41.7683C49.2804 34.7438 43.3318 32.6914 37.9985 31.3586V31.3586ZM33.1783 30.1784C31.0762 29.5127 29.6398 28.7427 29.6398 27.2552C29.6398 25.5122 30.9222 24.2816 33.1783 23.9736V30.1784V30.1784ZM37.9985 46.1272V39.256C40.2553 39.9735 41.845 40.7953 41.845 42.4865C41.845 44.128 40.6137 45.6141 37.9985 46.1272Z" fill="#333333"/>
</svg>
