<svg width="70" height="70" viewBox="0 0 70 70" fill="none" xmlns="http://www.w3.org/2000/svg">
<path fill-rule="evenodd" clip-rule="evenodd" d="M56.5765 39.7686C56.0947 38.548 55.5882 37.3536 55.1188 36.2686C52.1829 29.4874 48.3453 22.7674 45.0347 18.0468C41.6171 13.1774 28.7082 1.40864 26.2171 0.358643L25.1382 3.18052C27.1641 4.02927 31.2653 7.83552 31.2653 7.83552C31.9941 8.49177 32.9618 12.3024 32.9535 12.9236C32.9348 13.3113 32.9348 13.6997 32.9535 14.0874C33.0647 16.7693 32.6323 19.7224 31.6235 23.0999C29.6223 29.8111 25.13 35.4024 20.4565 39.8693C19.7812 39.7686 19.1059 39.6505 18.3976 39.6505C10.5082 39.6505 4.11353 46.3836 4.11353 54.6918C4.11353 62.9999 10.5082 69.733 18.3976 69.733C26.2871 69.733 32.6818 62.9999 32.6818 54.6918C32.6818 48.4355 29.0541 43.0805 23.8906 40.8143C28.3459 36.2774 32.4882 30.7255 34.4688 24.0668C35.5847 20.3261 36.0624 17.0143 35.9265 13.943C35.9141 13.6936 40.6947 17.898 42.7535 20.838C45.9776 25.4318 49.6547 31.0055 52.5865 37.7649C52.8706 38.4168 53.1794 39.1299 53.4882 39.8605C46.5376 40.8755 41.1723 47.0924 41.1723 54.6918C41.1723 62.9955 47.5671 69.733 55.4565 69.733C63.3459 69.733 69.7406 62.9999 69.7406 54.6918C69.7447 46.7818 63.9347 40.3768 56.5765 39.7686Z" fill="#333333"/>
</svg>
