<svg width="70" height="70" viewBox="0 0 70 70" fill="none" xmlns="http://www.w3.org/2000/svg">
<path d="M22.6953 8.68216C22.0544 8.69091 21.6694 8.74997 21.6694 8.74997L19.4141 8.9556L19.6875 11.2109C19.6875 11.2109 20.2256 16.2093 23.7891 19.8931C16.5594 21.0109 10.9375 26.9762 10.9375 34.2475C10.9375 42.0919 14.4331 48.3131 18.5259 52.5C20.3662 54.4064 22.4871 56.0205 24.815 57.2862C26.8909 58.3953 28.7962 59.0625 30.625 59.0625C31.8216 59.0625 32.9831 58.8569 34.0441 58.5156C34.6828 58.31 35.3172 58.31 35.9559 58.5156C37.0169 58.8569 38.1784 59.0625 39.375 59.0625C41.3569 59.0625 43.2622 58.2247 45.3228 56.9428C47.3812 55.6609 49.5272 53.8847 51.5419 51.6797C55.5778 47.2784 59.0625 41.1687 59.0625 34.2475C59.0625 26.1734 52.115 19.6875 43.75 19.6875C41.5034 19.6875 39.4253 20.2343 37.5287 21.1225C37.52 21.0634 37.4784 20.9606 37.4609 20.849C38.5809 15.0128 42.6562 12.8515 42.6562 12.8515L40.4688 9.02341C40.4688 9.02341 37.3844 10.8784 35.1356 14.8334C34.3699 13.6673 33.425 12.6293 32.3356 11.7578C28.8641 8.98841 24.6094 8.66466 22.6953 8.68216ZM24.815 13.3306C26.3266 13.5603 28.1991 14.0568 29.5991 15.1747C31.0275 16.3122 31.9834 17.979 32.5391 19.414C31.0187 19.1909 29.1134 18.6375 27.685 17.5C26.2762 16.3712 25.3706 14.7568 24.815 13.3306ZM26.25 24.0625C29.0938 24.0625 31.6247 25.0972 33.565 26.729L35 27.8906L36.435 26.729C38.4803 25.0014 41.0727 24.0564 43.75 24.0625C49.8859 24.0625 54.6875 28.6847 54.6875 34.2475C54.6875 39.6725 51.8438 44.9115 48.3306 48.7397C46.7629 50.4565 44.9687 51.9519 42.9975 53.1847C41.3241 54.2172 39.8037 54.6875 39.375 54.6875C38.6575 54.6875 37.9816 54.5584 37.3231 54.3462C35.8119 53.8592 34.1859 53.8592 32.6747 54.3462C32.0184 54.5584 31.3425 54.6875 30.625 54.6875C30.0344 54.6875 28.525 54.3462 26.8647 53.4559C25.2066 52.5678 23.3275 51.1919 21.6016 49.4244C18.1497 45.8872 15.3125 40.81 15.3125 34.2475C15.3125 28.6847 20.1141 24.0625 26.25 24.0625Z" fill="#333333"/>
</svg>
