<svg width="70" height="70" viewBox="0 0 70 70" fill="none" xmlns="http://www.w3.org/2000/svg">
<path d="M48.8184 21.0533C47.0236 16.9181 42.3023 16.1757 39.3864 16.0642C39.4434 14.1287 39.7766 12.7145 41.6622 11.4072C41.8381 11.2858 41.9851 11.1273 42.0929 10.9428C42.2007 10.7583 42.2666 10.5523 42.2859 10.3395C42.3052 10.1266 42.2775 9.91218 42.2046 9.71128C42.1318 9.51038 42.0157 9.32796 41.8644 9.17696L38.9478 6.26029C38.7692 6.08231 38.5476 5.95351 38.3046 5.88638C38.0615 5.81924 37.8053 5.81605 37.5606 5.87711C31.3627 7.43797 30.7048 11.9753 30.6335 16.0626C27.7209 16.172 22.9821 16.9085 21.1825 21.0519C13.5115 25.2957 8.75 32.8118 8.75 40.8334C8.75 53.6992 20.5249 64.1667 35 64.1667C49.4751 64.1667 61.25 53.6989 61.25 40.8334C61.25 32.812 56.488 25.2948 48.8184 21.0533ZM23.3333 24.7917C23.3333 21.7625 24.3929 18.9584 32.0833 18.9584C32.2749 18.9585 32.4646 18.9208 32.6416 18.8476C32.8185 18.7743 32.9793 18.6669 33.1148 18.5315C33.2502 18.396 33.3576 18.2352 33.4309 18.0582C33.5041 17.8813 33.5418 17.6916 33.5417 17.5C33.5417 13.074 33.7439 10.207 37.4951 8.93378L38.6743 10.1101C36.4297 11.8607 36.4583 15.3636 36.4583 17.5C36.4582 17.6916 36.4959 17.8813 36.5691 18.0582C36.6424 18.2352 36.7498 18.396 36.8852 18.5315C37.0207 18.6669 37.1815 18.7743 37.3585 18.8476C37.5354 18.9208 37.7251 18.9585 37.9167 18.9584C45.6071 18.9584 46.6667 21.7625 46.6667 24.7917V26.1461C44.2057 25.8028 41.5939 24.6237 40.6938 22.7125C40.5526 22.4126 40.3136 22.1698 40.0159 22.0241C39.7183 21.8783 39.3799 21.8383 39.0565 21.9106C38.7331 21.9829 38.444 22.1632 38.2368 22.4218C38.0296 22.6805 37.9167 23.002 37.9167 23.3334C37.9167 27.0375 35.5725 29.0727 35.0314 29.1682C34.4275 29.0723 32.0833 27.0375 32.0833 23.3334C32.0833 23.006 31.9732 22.6881 31.7707 22.4308C31.5682 22.1735 31.2851 21.9918 30.9668 21.9149C30.8548 21.8883 30.7401 21.8749 30.625 21.875C30.3562 21.8751 30.0926 21.9495 29.8634 22.09C29.6342 22.2305 29.4483 22.4316 29.3262 22.6711C28.2438 24.7899 25.5294 25.8198 23.3333 26.1372V24.7917ZM35 61.25C22.1342 61.25 11.6667 52.091 11.6667 40.8334C11.6667 34.5491 14.8911 28.7834 20.4167 24.9302V27.7084C20.4166 27.8999 20.4542 28.0896 20.5274 28.2666C20.6007 28.4436 20.7081 28.6044 20.8435 28.7398C20.979 28.8753 21.1398 28.9827 21.3168 29.0559C21.4938 29.1292 21.6835 29.1668 21.875 29.1667C24.6778 29.1687 27.4094 28.2844 29.6793 26.6403C30.7361 29.9282 33.1999 32.0834 35 32.0834C36.7916 32.0834 39.2438 29.9457 40.3064 26.6802C42.5865 28.3102 45.3222 29.1802 48.125 29.1667C48.3165 29.1668 48.5062 29.1292 48.6832 29.0559C48.8602 28.9827 49.021 28.8753 49.1565 28.7398C49.2919 28.6044 49.3993 28.4436 49.4726 28.2666C49.5458 28.0896 49.5835 27.8999 49.5833 27.7084V24.9281C55.1089 28.782 58.3333 34.5486 58.3333 40.8334C58.3333 52.091 47.8658 61.25 35 61.25Z" fill="#333333"/>
</svg>
